<svg width="720" height="1280" xmlns="http://www.w3.org/2000/svg" xmlns:xlink="http://www.w3.org/1999/xlink" overflow="hidden"><defs><clipPath id="clip0"><rect x="0" y="0" width="720" height="1280"/></clipPath></defs><g clip-path="url(#clip0)"><rect x="0" y="0" width="720" height="1280" fill="#FFFFFF"/><path d="M142.615 632.736C178.953 562.357 157.59 370.736 249.615 370.736" stroke="#696969" stroke-width="0.629921" stroke-linecap="round" stroke-linejoin="round" stroke-miterlimit="10" fill="none" fill-rule="evenodd"/><path d="M150.459 683.745C180.431 727.145 188.306 810.745 249.459 810.745" stroke="#696969" stroke-width="0.629921" stroke-linecap="round" stroke-linejoin="round" stroke-miterlimit="10" fill="none" fill-rule="evenodd"/><path d="M313 371.5C329.1 371.5 313 215.5 336 215.5" stroke="#696969" stroke-width="0.629921" stroke-linecap="round" stroke-linejoin="round" stroke-miterlimit="10" fill="none" fill-rule="evenodd"/><path d="M313 372C329.1 372 313 493 336 493" stroke="#696969" stroke-width="0.629921" stroke-linecap="round" stroke-linejoin="round" stroke-miterlimit="10" fill="none" fill-rule="evenodd"/><path d="M374.5 216C391.129 216 374.898 133 398.5 133" stroke="#696969" stroke-width="0.629921" stroke-linecap="round" stroke-linejoin="round" stroke-miterlimit="10" fill="none" fill-rule="evenodd"/><path d="M374.5 216.5C385.71 216.5 387.545 202.5 398.5 202.5" stroke="#696969" stroke-width="0.629921" stroke-linecap="round" stroke-linejoin="round" stroke-miterlimit="10" fill="none" fill-rule="evenodd"/><path d="M374.5 215.5C390.603 215.5 376.126 285.5 398.5 285.5" stroke="#696969" stroke-width="0.629921" stroke-linecap="round" stroke-linejoin="round" stroke-miterlimit="10" fill="none" fill-rule="evenodd"/><path d="M374.5 493C391.3 493 374.5 382 398.5 382" stroke="#696969" stroke-width="0.629921" stroke-linecap="round" stroke-linejoin="round" stroke-miterlimit="10" fill="none" fill-rule="evenodd"/><path d="M374.5 493C388.607 493 380.785 452 398.5 452" stroke="#696969" stroke-width="0.629921" stroke-linecap="round" stroke-linejoin="round" stroke-miterlimit="10" fill="none" fill-rule="evenodd"/><path d="M374.5 494C385.71 494 387.545 507 398.5 507" stroke="#696969" stroke-width="0.629921" stroke-linecap="round" stroke-linejoin="round" stroke-miterlimit="10" fill="none" fill-rule="evenodd"/><path d="M374.5 493C391.3 493 374.5 604 398.5 604" stroke="#696969" stroke-width="0.629921" stroke-linecap="round" stroke-linejoin="round" stroke-miterlimit="10" fill="none" fill-rule="evenodd"/><path d="M313 810.5C329 810.5 313.235 724.5 336 724.5" stroke="#696969" stroke-width="0.629921" stroke-linecap="round" stroke-linejoin="round" stroke-miterlimit="10" fill="none" fill-rule="evenodd"/><path d="M313 810.5C325.497 810.5 321.408 780.5 336 780.5" stroke="#696969" stroke-width="0.629921" stroke-linecap="round" stroke-linejoin="round" stroke-miterlimit="10" fill="none" fill-rule="evenodd"/><path d="M313 810C324.91 810 322.777 835 336 835" stroke="#696969" stroke-width="0.629921" stroke-linecap="round" stroke-linejoin="round" stroke-miterlimit="10" fill="none" fill-rule="evenodd"/><path d="M313 810.5C329.1 810.5 313 918.5 336 918.5" stroke="#696969" stroke-width="0.629921" stroke-linecap="round" stroke-linejoin="round" stroke-miterlimit="10" fill="none" fill-rule="evenodd"/><path d="M471.5 133.5C482.71 133.5 484.545 119.5 495.5 119.5" stroke="#696969" stroke-width="0.629921" stroke-linecap="round" stroke-linejoin="round" stroke-miterlimit="10" fill="none" fill-rule="evenodd"/><path d="M471.5 134C482.71 134 484.545 147 495.5 147" stroke="#696969" stroke-width="0.629921" stroke-linecap="round" stroke-linejoin="round" stroke-miterlimit="10" fill="none" fill-rule="evenodd"/><path d="M471.5 202.5C484.238 202.5 480.979 174.5 495.5 174.5" stroke="#696969" stroke-width="0.629921" stroke-linecap="round" stroke-linejoin="round" stroke-miterlimit="10" fill="none" fill-rule="evenodd"/><path d="M471.5 202.5C481.1 202.5 488.3 202.5 495.5 202.5" stroke="#696969" stroke-width="0.629921" stroke-linecap="round" stroke-linejoin="round" stroke-miterlimit="10" fill="none" fill-rule="evenodd"/><path d="M471.5 203C484.238 203 480.979 230 495.5 230" stroke="#696969" stroke-width="0.629921" stroke-linecap="round" stroke-linejoin="round" stroke-miterlimit="10" fill="none" fill-rule="evenodd"/><path d="M482.5 285.5C495.238 285.5 491.979 257.5 506.5 257.5" stroke="#696969" stroke-width="0.629921" stroke-linecap="round" stroke-linejoin="round" stroke-miterlimit="10" fill="none" fill-rule="evenodd"/><path d="M482.5 285.5C492.1 285.5 499.3 285.5 506.5 285.5" stroke="#696969" stroke-width="0.629921" stroke-linecap="round" stroke-linejoin="round" stroke-miterlimit="10" fill="none" fill-rule="evenodd"/><path d="M482.5 286C495.238 286 491.979 313 506.5 313" stroke="#696969" stroke-width="0.629921" stroke-linecap="round" stroke-linejoin="round" stroke-miterlimit="10" fill="none" fill-rule="evenodd"/><path d="M455.5 382.5C469.607 382.5 461.785 340.5 479.5 340.5" stroke="#696969" stroke-width="0.629921" stroke-linecap="round" stroke-linejoin="round" stroke-miterlimit="10" fill="none" fill-rule="evenodd"/><path d="M455.5 382.5C466.71 382.5 468.545 368.5 479.5 368.5" stroke="#696969" stroke-width="0.629921" stroke-linecap="round" stroke-linejoin="round" stroke-miterlimit="10" fill="none" fill-rule="evenodd"/><path d="M455.5 382.5C466.71 382.5 468.545 396.5 479.5 396.5" stroke="#696969" stroke-width="0.629921" stroke-linecap="round" stroke-linejoin="round" stroke-miterlimit="10" fill="none" fill-rule="evenodd"/><path d="M455.5 383C469.607 383 461.785 424 479.5 424" stroke="#696969" stroke-width="0.629921" stroke-linecap="round" stroke-linejoin="round" stroke-miterlimit="10" fill="none" fill-rule="evenodd"/><path d="M471.5 451.5C481.1 451.5 488.3 451.5 495.5 451.5" stroke="#696969" stroke-width="0.629921" stroke-linecap="round" stroke-linejoin="round" stroke-miterlimit="10" fill="none" fill-rule="evenodd"/><path d="M471.5 507C484.238 507 480.979 480 495.5 480" stroke="#696969" stroke-width="0.629921" stroke-linecap="round" stroke-linejoin="round" stroke-miterlimit="10" fill="none" fill-rule="evenodd"/><path d="M471.5 506.5C481.1 506.5 488.3 506.5 495.5 506.5" stroke="#696969" stroke-width="0.629921" stroke-linecap="round" stroke-linejoin="round" stroke-miterlimit="10" fill="none" fill-rule="evenodd"/><path d="M471.5 506.5C484.238 506.5 480.979 534.5 495.5 534.5" stroke="#696969" stroke-width="0.629921" stroke-linecap="round" stroke-linejoin="round" stroke-miterlimit="10" fill="none" fill-rule="evenodd"/><path d="M471.5 604C485.607 604 477.785 563 495.5 563" stroke="#696969" stroke-width="0.629921" stroke-linecap="round" stroke-linejoin="round" stroke-miterlimit="10" fill="none" fill-rule="evenodd"/><path d="M471.5 603.5C482.71 603.5 484.545 589.5 495.5 589.5" stroke="#696969" stroke-width="0.629921" stroke-linecap="round" stroke-linejoin="round" stroke-miterlimit="10" fill="none" fill-rule="evenodd"/><path d="M471.5 603.5C482.71 603.5 484.545 617.5 495.5 617.5" stroke="#696969" stroke-width="0.629921" stroke-linecap="round" stroke-linejoin="round" stroke-miterlimit="10" fill="none" fill-rule="evenodd"/><path d="M471.5 603.5C485.607 603.5 477.785 645.5 495.5 645.5" stroke="#696969" stroke-width="0.629921" stroke-linecap="round" stroke-linejoin="round" stroke-miterlimit="10" fill="none" fill-rule="evenodd"/><path d="M420.5 724.5C433.238 724.5 429.979 696.5 444.5 696.5" stroke="#696969" stroke-width="0.629921" stroke-linecap="round" stroke-linejoin="round" stroke-miterlimit="10" fill="none" fill-rule="evenodd"/><path d="M420.5 724.5C430.1 724.5 437.3 724.5 444.5 724.5" stroke="#696969" stroke-width="0.629921" stroke-linecap="round" stroke-linejoin="round" stroke-miterlimit="10" fill="none" fill-rule="evenodd"/><path d="M420.5 724.5C433.238 724.5 429.979 752.5 444.5 752.5" stroke="#696969" stroke-width="0.629921" stroke-linecap="round" stroke-linejoin="round" stroke-miterlimit="10" fill="none" fill-rule="evenodd"/><path d="M433.5 835.5C446.238 835.5 442.979 807.5 457.5 807.5" stroke="#696969" stroke-width="0.629921" stroke-linecap="round" stroke-linejoin="round" stroke-miterlimit="10" fill="none" fill-rule="evenodd"/><path d="M433.5 835.5C443.1 835.5 450.3 835.5 457.5 835.5" stroke="#696969" stroke-width="0.629921" stroke-linecap="round" stroke-linejoin="round" stroke-miterlimit="10" fill="none" fill-rule="evenodd"/><path d="M433.5 836C446.238 836 442.979 863 457.5 863" stroke="#696969" stroke-width="0.629921" stroke-linecap="round" stroke-linejoin="round" stroke-miterlimit="10" fill="none" fill-rule="evenodd"/><path d="M416.5 918.5C429.238 918.5 425.979 890.5 440.5 890.5" stroke="#696969" stroke-width="0.629921" stroke-linecap="round" stroke-linejoin="round" stroke-miterlimit="10" fill="none" fill-rule="evenodd"/><path d="M416.5 918.5C426.1 918.5 433.3 918.5 440.5 918.5" stroke="#696969" stroke-width="0.629921" stroke-linecap="round" stroke-linejoin="round" stroke-miterlimit="10" fill="none" fill-rule="evenodd"/><path d="M416.5 919C429.238 919 425.979 946 440.5 946" stroke="#696969" stroke-width="0.629921" stroke-linecap="round" stroke-linejoin="round" stroke-miterlimit="10" fill="none" fill-rule="evenodd"/><path d="M431.5 779.5C441.1 779.5 448.3 779.5 455.5 779.5" stroke="#696969" stroke-width="0.629921" stroke-linecap="round" stroke-linejoin="round" stroke-miterlimit="10" fill="none" fill-rule="evenodd"/><path d="M138.936 683.242C182.568 776.982 133.928 1097.24 249.936 1097.24" stroke="#696969" stroke-width="0.629921" stroke-linecap="round" stroke-linejoin="round" stroke-miterlimit="10" fill="none" fill-rule="evenodd"/><path d="M313 1097.5C329 1097.5 313.235 1011.5 336 1011.5" stroke="#696969" stroke-width="0.629921" stroke-linecap="round" stroke-linejoin="round" stroke-miterlimit="10" fill="none" fill-rule="evenodd"/><path d="M313 1097C326.768 1097 318.441 1052 336 1052" stroke="#696969" stroke-width="0.629921" stroke-linecap="round" stroke-linejoin="round" stroke-miterlimit="10" fill="none" fill-rule="evenodd"/><path d="M313 1097C322.526 1097 328.339 1094 336 1094" stroke="#696969" stroke-width="0.629921" stroke-linecap="round" stroke-linejoin="round" stroke-miterlimit="10" fill="none" fill-rule="evenodd"/><path d="M313 1097C326.26 1097 319.627 1136 336 1136" stroke="#696969" stroke-width="0.629921" stroke-linecap="round" stroke-linejoin="round" stroke-miterlimit="10" fill="none" fill-rule="evenodd"/><path d="M313 1097.5C328.858 1097.5 313.564 1177.5 336 1177.5" stroke="#696969" stroke-width="0.629921" stroke-linecap="round" stroke-linejoin="round" stroke-miterlimit="10" fill="none" fill-rule="evenodd"/><path d="M313 1098C329.1 1098 313 1219 336 1219" stroke="#696969" stroke-width="0.629921" stroke-linecap="round" stroke-linejoin="round" stroke-miterlimit="10" fill="none" fill-rule="evenodd"/><path d="M374.5 1011.5C385.71 1011.5 387.545 997.5 398.5 997.5" stroke="#696969" stroke-width="0.629921" stroke-linecap="round" stroke-linejoin="round" stroke-miterlimit="10" fill="none" fill-rule="evenodd"/><path d="M374.5 1011.5C385.71 1011.5 387.545 1025.5 398.5 1025.5" stroke="#696969" stroke-width="0.629921" stroke-linecap="round" stroke-linejoin="round" stroke-miterlimit="10" fill="none" fill-rule="evenodd"/><path d="M374.5 1094.5C385.71 1094.5 387.545 1080.5 398.5 1080.5" stroke="#696969" stroke-width="0.629921" stroke-linecap="round" stroke-linejoin="round" stroke-miterlimit="10" fill="none" fill-rule="evenodd"/><path d="M374.5 1094.5C385.71 1094.5 387.545 1108.5 398.5 1108.5" stroke="#696969" stroke-width="0.629921" stroke-linecap="round" stroke-linejoin="round" stroke-miterlimit="10" fill="none" fill-rule="evenodd"/><path d="M374.5 1135.5C384.1 1135.5 391.3 1135.5 398.5 1135.5" stroke="#696969" stroke-width="0.629921" stroke-linecap="round" stroke-linejoin="round" stroke-miterlimit="10" fill="none" fill-rule="evenodd"/><path d="M374.5 1177.5C385.71 1177.5 387.545 1163.5 398.5 1163.5" stroke="#696969" stroke-width="0.629921" stroke-linecap="round" stroke-linejoin="round" stroke-miterlimit="10" fill="none" fill-rule="evenodd"/><path d="M374.5 1177.5C385.71 1177.5 387.545 1191.5 398.5 1191.5" stroke="#696969" stroke-width="0.629921" stroke-linecap="round" stroke-linejoin="round" stroke-miterlimit="10" fill="none" fill-rule="evenodd"/><path d="M374.5 1218.5C384.1 1218.5 391.3 1218.5 398.5 1218.5" stroke="#696969" stroke-width="0.629921" stroke-linecap="round" stroke-linejoin="round" stroke-miterlimit="10" fill="none" fill-rule="evenodd"/><path d="M23.533 632 190.467 632C192.841 632 194 633.174 194 635.579L194 679.421C194 681.826 192.841 683 190.467 683L23.533 683C21.1588 683 20 681.826 20 679.421L20 635.579C20 633.174 21.1588 632 23.533 632Z" stroke="#435FBC" stroke-width="1.88976" stroke-linejoin="round" stroke-miterlimit="10" fill="#435FBC" fill-rule="evenodd"/><text fill="#FFFFFF" font-family="Microsoft YaHei,Microsoft YaHei_MSFontService,sans-serif" font-weight="400" font-size="11" transform="translate(61.5386 660)">正确使用标点符号</text><path d="M253.049 354.5 308.951 354.5C311.336 354.5 312.5 355.67 312.5 358.068L312.5 383.932C312.5 386.33 311.336 387.5 308.951 387.5L253.049 387.5C250.664 387.5 249.5 386.33 249.5 383.932L249.5 358.068C249.5 355.67 250.664 354.5 253.049 354.5Z" stroke="#EBECF3" stroke-width="0.629921" stroke-linejoin="round" stroke-miterlimit="10" fill="#EBECF3" fill-rule="evenodd"/><text fill="#303030" font-family="Microsoft YaHei,Microsoft YaHei_MSFontService,sans-serif" font-weight="400" font-size="9" transform="translate(270.984 373)">点号</text><path d="M253.049 793.5 308.951 793.5C311.336 793.5 312.5 794.67 312.5 797.068L312.5 822.932C312.5 825.33 311.336 826.5 308.951 826.5L253.049 826.5C250.664 826.5 249.5 825.33 249.5 822.932L249.5 797.068C249.5 794.67 250.664 793.5 253.049 793.5Z" stroke="#EBECF3" stroke-width="0.629921" stroke-linejoin="round" stroke-miterlimit="10" fill="#EBECF3" fill-rule="evenodd"/><text fill="#303030" font-family="Microsoft YaHei,Microsoft YaHei_MSFontService,sans-serif" font-weight="400" font-size="9" transform="translate(270.984 812)">标号</text><path d="M336.5 216.5 374.5 216.5" stroke="#696969" stroke-width="0.629921" stroke-linejoin="round" stroke-miterlimit="10" fill="none" fill-rule="evenodd"/><text fill="#454545" font-family="Microsoft YaHei,Microsoft YaHei_MSFontService,sans-serif" font-weight="400" font-size="8" transform="translate(346.89 207)">句末</text><path d="M336.5 493.5 374.5 493.5" stroke="#696969" stroke-width="0.629921" stroke-linejoin="round" stroke-miterlimit="10" fill="none" fill-rule="evenodd"/><text fill="#454545" font-family="Microsoft YaHei,Microsoft YaHei_MSFontService,sans-serif" font-weight="400" font-size="8" transform="translate(346.89 483)">句中</text><path d="M398.5 133.5 471.5 133.5" stroke="#696969" stroke-width="0.629921" stroke-linejoin="round" stroke-miterlimit="10" fill="none" fill-rule="evenodd"/><text fill="#454545" font-family="Microsoft YaHei,Microsoft YaHei_MSFontService,sans-serif" font-weight="400" font-size="8" transform="translate(414.569 123)">句号（。）</text><path d="M398.5 202.5 471.5 202.5" stroke="#696969" stroke-width="0.629921" stroke-linejoin="round" stroke-miterlimit="10" fill="none" fill-rule="evenodd"/><text fill="#454545" font-family="Microsoft YaHei,Microsoft YaHei_MSFontService,sans-serif" font-weight="400" font-size="8" transform="translate(414.569 193)">问号（？）</text><path d="M398.5 285.5 483.5 285.5" stroke="#696969" stroke-width="0.629921" stroke-linejoin="round" stroke-miterlimit="10" fill="none" fill-rule="evenodd"/><text fill="#454545" font-family="Microsoft YaHei,Microsoft YaHei_MSFontService,sans-serif" font-weight="400" font-size="8" transform="translate(416.292 276)">感叹号（！）</text><path d="M398.5 382.5 455.5 382.5" stroke="#696969" stroke-width="0.629921" stroke-linejoin="round" stroke-miterlimit="10" fill="none" fill-rule="evenodd"/><text fill="#454545" font-family="Microsoft YaHei,Microsoft YaHei_MSFontService,sans-serif" font-weight="400" font-size="8" transform="translate(412.145 373)">逗号<tspan font-family="Calibri,Calibri_MSFontService,sans-serif" font-size="8" x="16" y="0">(</tspan>，<tspan font-family="Calibri,Calibri_MSFontService,sans-serif" font-size="8" x="26.5" y="0">)</tspan></text><path d="M398.5 451.5 471.5 451.5" stroke="#696969" stroke-width="0.629921" stroke-linejoin="round" stroke-miterlimit="10" fill="none" fill-rule="evenodd"/><text fill="#454545" font-family="Microsoft YaHei,Microsoft YaHei_MSFontService,sans-serif" font-weight="400" font-size="8" transform="translate(414.569 442)">顿号（、）</text><path d="M398.5 506.5 471.5 506.5" stroke="#696969" stroke-width="0.629921" stroke-linejoin="round" stroke-miterlimit="10" fill="none" fill-rule="evenodd"/><text fill="#454545" font-family="Microsoft YaHei,Microsoft YaHei_MSFontService,sans-serif" font-weight="400" font-size="8" transform="translate(414.569 497)">分号（；）</text><path d="M398.5 603.5 471.5 603.5" stroke="#696969" stroke-width="0.629921" stroke-linejoin="round" stroke-miterlimit="10" fill="none" fill-rule="evenodd"/><text fill="#454545" font-family="Microsoft YaHei,Microsoft YaHei_MSFontService,sans-serif" font-weight="400" font-size="8" transform="translate(414.569 594)">冒号（：）</text><path d="M336.5 724.5 420.5 724.5" stroke="#696969" stroke-width="0.629921" stroke-linejoin="round" stroke-miterlimit="10" fill="none" fill-rule="evenodd"/><text fill="#454545" font-family="Microsoft YaHei,Microsoft YaHei_MSFontService,sans-serif" font-weight="400" font-size="8" transform="translate(358.448 715)">引号（<tspan font-family="Calibri,Calibri_MSFontService,sans-serif" font-size="8" x="24" y="0">“”</tspan><tspan font-size="8" x="30.6667" y="0">）</tspan></text><path d="M336.5 779.5 431.5 779.5" stroke="#696969" stroke-width="0.629921" stroke-linejoin="round" stroke-miterlimit="10" fill="none" fill-rule="evenodd"/><text fill="#454545" font-family="Microsoft YaHei,Microsoft YaHei_MSFontService,sans-serif" font-weight="400" font-size="8" transform="translate(355.504 770)">书名号（《》）</text><path d="M336.5 835.5 433.5 835.5" stroke="#696969" stroke-width="0.629921" stroke-linejoin="round" stroke-miterlimit="10" fill="none" fill-rule="evenodd"/><text fill="#454545" font-family="Microsoft YaHei,Microsoft YaHei_MSFontService,sans-serif" font-weight="400" font-size="8" transform="translate(357.218 826)">破折号（<tspan font-family="Calibri,Calibri_MSFontService,sans-serif" font-size="8" x="32" y="0">——</tspan><tspan font-size="8" x="46.3333" y="0">）</tspan></text><path d="M336.5 918.5 417.5 918.5" stroke="#696969" stroke-width="0.629921" stroke-linejoin="round" stroke-miterlimit="10" fill="none" fill-rule="evenodd"/><text fill="#454545" font-family="Microsoft YaHei,Microsoft YaHei_MSFontService,sans-serif" font-weight="400" font-size="8" transform="translate(352.77 909)">省略号（<tspan font-family="Calibri,Calibri_MSFontService,sans-serif" font-size="8" x="32" y="0">......)</tspan></text><path d="M495.5 119.5 568.5 119.5" stroke="#696969" stroke-width="0.629921" stroke-linejoin="round" stroke-miterlimit="10" fill="none" fill-rule="evenodd"/><text fill="#454545" font-family="Microsoft YaHei,Microsoft YaHei_MSFontService,sans-serif" font-weight="400" font-size="8" transform="translate(511.417 110)">陈述句末尾</text><path d="M495.5 146.5 625.5 146.5" stroke="#696969" stroke-width="0.629921" stroke-linejoin="round" stroke-miterlimit="10" fill="none" fill-rule="evenodd"/><text fill="#454545" font-family="Microsoft YaHei,Microsoft YaHei_MSFontService,sans-serif" font-weight="400" font-size="8" transform="translate(520.031 137)">语气舒缓的祈使句末尾</text><path d="M495.5 174.5 568.5 174.5" stroke="#696969" stroke-width="0.629921" stroke-linejoin="round" stroke-miterlimit="10" fill="none" fill-rule="evenodd"/><text fill="#454545" font-family="Microsoft YaHei,Microsoft YaHei_MSFontService,sans-serif" font-weight="400" font-size="8" transform="translate(511.417 165)">疑问句末尾</text><path d="M495.5 202.5 637.5 202.5" stroke="#696969" stroke-width="0.629921" stroke-linejoin="round" stroke-miterlimit="10" fill="none" fill-rule="evenodd"/><text fill="#454545" font-family="Microsoft YaHei,Microsoft YaHei_MSFontService,sans-serif" font-weight="400" font-size="8" transform="translate(521.753 193)">选择问句中最后一个问句</text><path d="M495.5 230.5 568.5 230.5" stroke="#696969" stroke-width="0.629921" stroke-linejoin="round" stroke-miterlimit="10" fill="none" fill-rule="evenodd"/><text fill="#454545" font-family="Microsoft YaHei,Microsoft YaHei_MSFontService,sans-serif" font-weight="400" font-size="8" transform="translate(511.417 220)">反问句末尾</text><path d="M506.5 257.5 579.5 257.5" stroke="#696969" stroke-width="0.629921" stroke-linejoin="round" stroke-miterlimit="10" fill="none" fill-rule="evenodd"/><text fill="#454545" font-family="Microsoft YaHei,Microsoft YaHei_MSFontService,sans-serif" font-weight="400" font-size="8" transform="translate(522.862 248)">感叹句末尾</text><path d="M506.5 285.5 637.5 285.5" stroke="#696969" stroke-width="0.629921" stroke-linejoin="round" stroke-miterlimit="10" fill="none" fill-rule="evenodd"/><text fill="#454545" font-family="Microsoft YaHei,Microsoft YaHei_MSFontService,sans-serif" font-weight="400" font-size="8" transform="translate(531.476 276)">语气强烈的祈使句末尾</text><path d="M506.5 313.5 637.5 313.5" stroke="#696969" stroke-width="0.629921" stroke-linejoin="round" stroke-miterlimit="10" fill="none" fill-rule="evenodd"/><text fill="#454545" font-family="Microsoft YaHei,Microsoft YaHei_MSFontService,sans-serif" font-weight="400" font-size="8" transform="translate(531.476 303)">语气强烈的反问句末尾</text><path d="M479.5 340.5 552.5 340.5" stroke="#696969" stroke-width="0.629921" stroke-linejoin="round" stroke-miterlimit="10" fill="none" fill-rule="evenodd"/><text fill="#454545" font-family="Microsoft YaHei,Microsoft YaHei_MSFontService,sans-serif" font-weight="400" font-size="8" transform="translate(495.569 331)">句内主谓间</text><path d="M479.5 368.5 552.5 368.5" stroke="#696969" stroke-width="0.629921" stroke-linejoin="round" stroke-miterlimit="10" fill="none" fill-rule="evenodd"/><text fill="#454545" font-family="Microsoft YaHei,Microsoft YaHei_MSFontService,sans-serif" font-weight="400" font-size="8" transform="translate(495.569 359)">句内动宾间</text><path d="M479.5 396.5 552.5 396.5" stroke="#696969" stroke-width="0.629921" stroke-linejoin="round" stroke-miterlimit="10" fill="none" fill-rule="evenodd"/><text fill="#454545" font-family="Microsoft YaHei,Microsoft YaHei_MSFontService,sans-serif" font-weight="400" font-size="8" transform="translate(495.569 387)">句中状语后</text><path d="M479.5 423.5 552.5 423.5" stroke="#696969" stroke-width="0.629921" stroke-linejoin="round" stroke-miterlimit="10" fill="none" fill-rule="evenodd"/><text fill="#454545" font-family="Microsoft YaHei,Microsoft YaHei_MSFontService,sans-serif" font-weight="400" font-size="8" transform="translate(495.569 414)">句内分句间</text><path d="M495.5 451.5 591.5 451.5" stroke="#696969" stroke-width="0.629921" stroke-linejoin="round" stroke-miterlimit="10" fill="none" fill-rule="evenodd"/><text fill="#454545" font-family="Microsoft YaHei,Microsoft YaHei_MSFontService,sans-serif" font-weight="400" font-size="8" transform="translate(514.862 442)">句内并列词语间</text><path d="M495.5 479.5 591.5 479.5" stroke="#696969" stroke-width="0.629921" stroke-linejoin="round" stroke-miterlimit="10" fill="none" fill-rule="evenodd"/><text fill="#454545" font-family="Microsoft YaHei,Microsoft YaHei_MSFontService,sans-serif" font-weight="400" font-size="8" transform="translate(514.862 470)">句内并列分句间</text><path d="M495.5 506.5 694.5 506.5" stroke="#696969" stroke-width="0.629921" stroke-linejoin="round" stroke-miterlimit="10" fill="none" fill-rule="evenodd"/><text fill="#454545" font-family="Microsoft YaHei,Microsoft YaHei_MSFontService,sans-serif" font-weight="400" font-size="8" transform="translate(530.367 497)">非并列关系多重复句中第一层关系间</text><path d="M495.5 534.5 557.5 534.5" stroke="#696969" stroke-width="0.629921" stroke-linejoin="round" stroke-miterlimit="10" fill="none" fill-rule="evenodd"/><text fill="#454545" font-family="Microsoft YaHei,Microsoft YaHei_MSFontService,sans-serif" font-weight="400" font-size="8" transform="translate(509.694 525)">分项列举</text><path d="M495.5 562.5 557.5 562.5" stroke="#696969" stroke-width="0.629921" stroke-linejoin="round" stroke-miterlimit="10" fill="none" fill-rule="evenodd"/><text fill="#454545" font-family="Microsoft YaHei,Microsoft YaHei_MSFontService,sans-serif" font-weight="400" font-size="8" transform="translate(509.694 553)">称呼语后</text><path d="M495.5 590.5 545.5 590.5" stroke="#696969" stroke-width="0.629921" stroke-linejoin="round" stroke-miterlimit="10" fill="none" fill-rule="evenodd"/><text fill="#454545" font-family="Microsoft YaHei,Microsoft YaHei_MSFontService,sans-serif" font-weight="400" font-size="8" transform="translate(507.971 580)">引语前</text><path d="M495.5 617.5 545.5 617.5" stroke="#696969" stroke-width="0.629921" stroke-linejoin="round" stroke-miterlimit="10" fill="none" fill-rule="evenodd"/><text fill="#454545" font-family="Microsoft YaHei,Microsoft YaHei_MSFontService,sans-serif" font-weight="400" font-size="8" transform="translate(507.971 608)">总说后</text><path d="M495.5 645.5 557.5 645.5" stroke="#696969" stroke-width="0.629921" stroke-linejoin="round" stroke-miterlimit="10" fill="none" fill-rule="evenodd"/><text fill="#454545" font-family="Microsoft YaHei,Microsoft YaHei_MSFontService,sans-serif" font-weight="400" font-size="8" transform="translate(509.694 636)">概括语前</text><path d="M444.5 696.5 505.5 696.5" stroke="#696969" stroke-width="0.629921" stroke-linejoin="round" stroke-miterlimit="10" fill="none" fill-rule="evenodd"/><text fill="#454545" font-family="Microsoft YaHei,Microsoft YaHei_MSFontService,sans-serif" font-weight="400" font-size="8" transform="translate(458.629 687)">直接引用</text><path d="M444.5 724.5 505.5 724.5" stroke="#696969" stroke-width="0.629921" stroke-linejoin="round" stroke-miterlimit="10" fill="none" fill-rule="evenodd"/><text fill="#454545" font-family="Microsoft YaHei,Microsoft YaHei_MSFontService,sans-serif" font-weight="400" font-size="8" transform="translate(458.629 715)">着重论述</text><path d="M444.5 752.5 505.5 752.5" stroke="#696969" stroke-width="0.629921" stroke-linejoin="round" stroke-miterlimit="10" fill="none" fill-rule="evenodd"/><text fill="#454545" font-family="Microsoft YaHei,Microsoft YaHei_MSFontService,sans-serif" font-weight="400" font-size="8" transform="translate(458.629 742)">特殊含义</text><path d="M457.5 807.5 519.5 807.5" stroke="#696969" stroke-width="0.629921" stroke-linejoin="round" stroke-miterlimit="10" fill="none" fill-rule="evenodd"/><text fill="#454545" font-family="Microsoft YaHei,Microsoft YaHei_MSFontService,sans-serif" font-weight="400" font-size="8" transform="translate(471.835 798)">解释说明</text><path d="M457.5 835.5 519.5 835.5" stroke="#696969" stroke-width="0.629921" stroke-linejoin="round" stroke-miterlimit="10" fill="none" fill-rule="evenodd"/><text fill="#454545" font-family="Microsoft YaHei,Microsoft YaHei_MSFontService,sans-serif" font-weight="400" font-size="8" transform="translate(471.835 826)">话题突转</text><path d="M457.5 862.5 519.5 862.5" stroke="#696969" stroke-width="0.629921" stroke-linejoin="round" stroke-miterlimit="10" fill="none" fill-rule="evenodd"/><text fill="#454545" font-family="Microsoft YaHei,Microsoft YaHei_MSFontService,sans-serif" font-weight="400" font-size="8" transform="translate(471.835 853)">声音延长</text><path d="M440.5 890.5 502.5 890.5" stroke="#696969" stroke-width="0.629921" stroke-linejoin="round" stroke-miterlimit="10" fill="none" fill-rule="evenodd"/><text fill="#454545" font-family="Microsoft YaHei,Microsoft YaHei_MSFontService,sans-serif" font-weight="400" font-size="8" transform="translate(455.107 881)">省略引文</text><path d="M440.5 918.5 502.5 918.5" stroke="#696969" stroke-width="0.629921" stroke-linejoin="round" stroke-miterlimit="10" fill="none" fill-rule="evenodd"/><text fill="#454545" font-family="Microsoft YaHei,Microsoft YaHei_MSFontService,sans-serif" font-weight="400" font-size="8" transform="translate(455.107 909)">省略列举</text><path d="M440.5 946.5 502.5 946.5" stroke="#696969" stroke-width="0.629921" stroke-linejoin="round" stroke-miterlimit="10" fill="none" fill-rule="evenodd"/><text fill="#454545" font-family="Microsoft YaHei,Microsoft YaHei_MSFontService,sans-serif" font-weight="400" font-size="8" transform="translate(455.107 936)">说话断续</text><path d="M455.5 779.5 597.5 779.5" stroke="#696969" stroke-width="0.629921" stroke-linejoin="round" stroke-miterlimit="10" fill="none" fill-rule="evenodd"/><text fill="#454545" font-family="Microsoft YaHei,Microsoft YaHei_MSFontService,sans-serif" font-weight="400" font-size="8" transform="translate(482.134 770)">书名、篇名、报纸刊物名</text><path d="M253.049 1080.5 308.951 1080.5C311.336 1080.5 312.5 1081.67 312.5 1084.07L312.5 1109.93C312.5 1112.33 311.336 1113.5 308.951 1113.5L253.049 1113.5C250.664 1113.5 249.5 1112.33 249.5 1109.93L249.5 1084.07C249.5 1081.67 250.664 1080.5 253.049 1080.5Z" stroke="#EBECF3" stroke-width="0.629921" stroke-linejoin="round" stroke-miterlimit="10" fill="#EBECF3" fill-rule="evenodd"/><text fill="#303030" font-family="Microsoft YaHei,Microsoft YaHei_MSFontService,sans-serif" font-weight="400" font-size="9" transform="translate(270.984 1099)">误用</text><path d="M336.5 1011.5 374.5 1011.5" stroke="#696969" stroke-width="0.629921" stroke-linejoin="round" stroke-miterlimit="10" fill="none" fill-rule="evenodd"/><text fill="#454545" font-family="Microsoft YaHei,Microsoft YaHei_MSFontService,sans-serif" font-weight="400" font-size="8" transform="translate(346.89 1002)">问号</text><path d="M336.5 1052.5 443.5 1052.5" stroke="#696969" stroke-width="0.629921" stroke-linejoin="round" stroke-miterlimit="10" fill="none" fill-rule="evenodd"/><text fill="#454545" font-family="Microsoft YaHei,Microsoft YaHei_MSFontService,sans-serif" font-weight="400" font-size="8" transform="translate(357.227 1043)">倒装句中句末点号</text><path d="M336.5 1094.5 374.5 1094.5" stroke="#696969" stroke-width="0.629921" stroke-linejoin="round" stroke-miterlimit="10" fill="none" fill-rule="evenodd"/><text fill="#454545" font-family="Microsoft YaHei,Microsoft YaHei_MSFontService,sans-serif" font-weight="400" font-size="8" transform="translate(346.89 1085)">顿号</text><path d="M336.5 1135.5 374.5 1135.5" stroke="#696969" stroke-width="0.629921" stroke-linejoin="round" stroke-miterlimit="10" fill="none" fill-rule="evenodd"/><text fill="#454545" font-family="Microsoft YaHei,Microsoft YaHei_MSFontService,sans-serif" font-weight="400" font-size="8" transform="translate(346.89 1126)">括号</text><path d="M336.5 1177.5 374.5 1177.5" stroke="#696969" stroke-width="0.629921" stroke-linejoin="round" stroke-miterlimit="10" fill="none" fill-rule="evenodd"/><text fill="#454545" font-family="Microsoft YaHei,Microsoft YaHei_MSFontService,sans-serif" font-weight="400" font-size="8" transform="translate(346.89 1168)">冒号</text><path d="M336.5 1218.5 374.5 1218.5" stroke="#696969" stroke-width="0.629921" stroke-linejoin="round" stroke-miterlimit="10" fill="none" fill-rule="evenodd"/><text fill="#454545" font-family="Microsoft YaHei,Microsoft YaHei_MSFontService,sans-serif" font-weight="400" font-size="8" transform="translate(346.89 1209)">引号</text><path d="M398.5 997.5 505.5 997.5" stroke="#696969" stroke-width="0.629921" stroke-linejoin="round" stroke-miterlimit="10" fill="none" fill-rule="evenodd"/><text fill="#454545" font-family="Microsoft YaHei,Microsoft YaHei_MSFontService,sans-serif" font-weight="400" font-size="8" transform="translate(419.737 988)">非疑问句不用问号</text><path d="M398.5 1025.5 494.5 1025.5" stroke="#696969" stroke-width="0.629921" stroke-linejoin="round" stroke-miterlimit="10" fill="none" fill-rule="evenodd"/><text fill="#454545" font-family="Microsoft YaHei,Microsoft YaHei_MSFontService,sans-serif" font-weight="400" font-size="8" transform="translate(418.015 1015)">选择问与连续问</text><path d="M398.5 1080.5 608.5 1080.5" stroke="#696969" stroke-width="0.629921" stroke-linejoin="round" stroke-miterlimit="10" fill="none" fill-rule="evenodd"/><text fill="#454545" font-family="Microsoft YaHei,Microsoft YaHei_MSFontService,sans-serif" font-weight="400" font-size="8" transform="translate(435.243 1071)">不同层次的并列短语间逗号和顿号区分</text><path d="M398.5 1108.5 528.5 1108.5" stroke="#696969" stroke-width="0.629921" stroke-linejoin="round" stroke-miterlimit="10" fill="none" fill-rule="evenodd"/><text fill="#454545" font-family="Microsoft YaHei,Microsoft YaHei_MSFontService,sans-serif" font-weight="400" font-size="8" transform="translate(423.183 1098)">没有明显停顿不用顿号</text><path d="M398.5 1135.5 540.5 1135.5" stroke="#696969" stroke-width="0.629921" stroke-linejoin="round" stroke-miterlimit="10" fill="none" fill-rule="evenodd"/><text fill="#454545" font-family="Microsoft YaHei,Microsoft YaHei_MSFontService,sans-serif" font-weight="400" font-size="8" transform="translate(424.906 1126)">直接接在被解释词语后面</text><path d="M398.5 1163.5 505.5 1163.5" stroke="#696969" stroke-width="0.629921" stroke-linejoin="round" stroke-miterlimit="10" fill="none" fill-rule="evenodd"/><text fill="#454545" font-family="Microsoft YaHei,Microsoft YaHei_MSFontService,sans-serif" font-weight="400" font-size="8" transform="translate(419.737 1154)">部分引用不用冒号</text><path d="M398.5 1191.5 494.5 1191.5" stroke="#696969" stroke-width="0.629921" stroke-linejoin="round" stroke-miterlimit="10" fill="none" fill-rule="evenodd"/><text fill="#454545" font-family="Microsoft YaHei,Microsoft YaHei_MSFontService,sans-serif" font-weight="400" font-size="8" transform="translate(418.015 1182)">总结概括用冒号</text><path d="M398.5 1218.5 517.5 1218.5" stroke="#696969" stroke-width="0.629921" stroke-linejoin="round" stroke-miterlimit="10" fill="none" fill-rule="evenodd"/><text fill="#454545" font-family="Microsoft YaHei,Microsoft YaHei_MSFontService,sans-serif" font-weight="400" font-size="8" transform="translate(421.46 1209)">部分引用与全部引用</text></g></svg>