<svg width="720" height="1280" xmlns="http://www.w3.org/2000/svg" xmlns:xlink="http://www.w3.org/1999/xlink" overflow="hidden"><defs><clipPath id="clip0"><rect x="0" y="0" width="720" height="1280"/></clipPath></defs><g clip-path="url(#clip0)"><rect x="0" y="0" width="720" height="1280" fill="#FFFFFF"/><path d="M132.313 628.039C165.715 552.309 132.917 330.039 227.313 330.039" stroke="#696969" stroke-width="0.514436" stroke-linecap="round" stroke-linejoin="round" stroke-miterlimit="10" fill="none" fill-rule="evenodd"/><path d="M187.833 676.003C200.073 680.037 212.855 683.003 227.833 683.003" stroke="#696969" stroke-width="0.514436" stroke-linecap="round" stroke-linejoin="round" stroke-miterlimit="10" fill="none" fill-rule="evenodd"/><path d="M137.492 677.966C164.419 727.154 161.621 831.966 227.492 831.966" stroke="#696969" stroke-width="0.514436" stroke-linecap="round" stroke-linejoin="round" stroke-miterlimit="10" fill="none" fill-rule="evenodd"/><path d="M272 329.5C283.9 329.5 272 177.5 289 177.5" stroke="#696969" stroke-width="0.514436" stroke-linecap="round" stroke-linejoin="round" stroke-miterlimit="10" fill="none" fill-rule="evenodd"/><path d="M272 329C280.972 329 278.832 348 289 348" stroke="#696969" stroke-width="0.514436" stroke-linecap="round" stroke-linejoin="round" stroke-miterlimit="10" fill="none" fill-rule="evenodd"/><path d="M272 330C283.9 330 272 507 289 507" stroke="#696969" stroke-width="0.514436" stroke-linecap="round" stroke-linejoin="round" stroke-miterlimit="10" fill="none" fill-rule="evenodd"/><path d="M317 178.5C328.9 178.5 317 112.5 334 112.5" stroke="#696969" stroke-width="0.514436" stroke-linecap="round" stroke-linejoin="round" stroke-miterlimit="10" fill="none" fill-rule="evenodd"/><path d="M317 178C328.406 178 318.152 131 334 131" stroke="#696969" stroke-width="0.514436" stroke-linecap="round" stroke-linejoin="round" stroke-miterlimit="10" fill="none" fill-rule="evenodd"/><path d="M317 178C326.992 178 321.452 149 334 149" stroke="#696969" stroke-width="0.514436" stroke-linecap="round" stroke-linejoin="round" stroke-miterlimit="10" fill="none" fill-rule="evenodd"/><path d="M317 178C324.94 178 326.24 169 334 169" stroke="#696969" stroke-width="0.514436" stroke-linecap="round" stroke-linejoin="round" stroke-miterlimit="10" fill="none" fill-rule="evenodd"/><path d="M317 177.5C324.94 177.5 326.24 187.5 334 187.5" stroke="#696969" stroke-width="0.514436" stroke-linecap="round" stroke-linejoin="round" stroke-miterlimit="10" fill="none" fill-rule="evenodd"/><path d="M317 178.5C326.992 178.5 321.452 206.5 334 206.5" stroke="#696969" stroke-width="0.514436" stroke-linecap="round" stroke-linejoin="round" stroke-miterlimit="10" fill="none" fill-rule="evenodd"/><path d="M317 178C328.406 178 318.152 225 334 225" stroke="#696969" stroke-width="0.514436" stroke-linecap="round" stroke-linejoin="round" stroke-miterlimit="10" fill="none" fill-rule="evenodd"/><path d="M317 178.5C328.9 178.5 317 244.5 334 244.5" stroke="#696969" stroke-width="0.514436" stroke-linecap="round" stroke-linejoin="round" stroke-miterlimit="10" fill="none" fill-rule="evenodd"/><path d="M317 348C328.9 348 317 263 334 263" stroke="#696969" stroke-width="0.514436" stroke-linecap="round" stroke-linejoin="round" stroke-miterlimit="10" fill="none" fill-rule="evenodd"/><path d="M317 348C327.801 348 319.565 311 334 311" stroke="#696969" stroke-width="0.514436" stroke-linecap="round" stroke-linejoin="round" stroke-miterlimit="10" fill="none" fill-rule="evenodd"/><path d="M378 310.5C387.992 310.5 382.452 282.5 395 282.5" stroke="#696969" stroke-width="0.514436" stroke-linecap="round" stroke-linejoin="round" stroke-miterlimit="10" fill="none" fill-rule="evenodd"/><path d="M378 310C385.94 310 387.24 301 395 301" stroke="#696969" stroke-width="0.514436" stroke-linecap="round" stroke-linejoin="round" stroke-miterlimit="10" fill="none" fill-rule="evenodd"/><path d="M378 309.5C385.94 309.5 387.24 319.5 395 319.5" stroke="#696969" stroke-width="0.514436" stroke-linecap="round" stroke-linejoin="round" stroke-miterlimit="10" fill="none" fill-rule="evenodd"/><path d="M378 310.5C387.992 310.5 382.452 338.5 395 338.5" stroke="#696969" stroke-width="0.514436" stroke-linecap="round" stroke-linejoin="round" stroke-miterlimit="10" fill="none" fill-rule="evenodd"/><path d="M317 348.5C326.992 348.5 321.452 376.5 334 376.5" stroke="#696969" stroke-width="0.514436" stroke-linecap="round" stroke-linejoin="round" stroke-miterlimit="10" fill="none" fill-rule="evenodd"/><path d="M378 376C387.022 376 384.715 357 395 357" stroke="#696969" stroke-width="0.514436" stroke-linecap="round" stroke-linejoin="round" stroke-miterlimit="10" fill="none" fill-rule="evenodd"/><path d="M378 376.5C384.8 376.5 389.9 376.5 395 376.5" stroke="#696969" stroke-width="0.514436" stroke-linecap="round" stroke-linejoin="round" stroke-miterlimit="10" fill="none" fill-rule="evenodd"/><path d="M378 376C387.022 376 384.715 395 395 395" stroke="#696969" stroke-width="0.514436" stroke-linecap="round" stroke-linejoin="round" stroke-miterlimit="10" fill="none" fill-rule="evenodd"/><path d="M317 347C328.9 347 317 414 334 414" stroke="#696969" stroke-width="0.514436" stroke-linecap="round" stroke-linejoin="round" stroke-miterlimit="10" fill="none" fill-rule="evenodd"/><path d="M317 348C328.9 348 317 433 334 433" stroke="#696969" stroke-width="0.514436" stroke-linecap="round" stroke-linejoin="round" stroke-miterlimit="10" fill="none" fill-rule="evenodd"/><path d="M317 507C328.736 507 317.383 452 334 452" stroke="#696969" stroke-width="0.514436" stroke-linecap="round" stroke-linejoin="round" stroke-miterlimit="10" fill="none" fill-rule="evenodd"/><path d="M317 506.5C324.94 506.5 326.24 516.5 334 516.5" stroke="#696969" stroke-width="0.514436" stroke-linecap="round" stroke-linejoin="round" stroke-miterlimit="10" fill="none" fill-rule="evenodd"/><path d="M378 516.5C389.324 516.5 379.345 470.5 395 470.5" stroke="#696969" stroke-width="0.514436" stroke-linecap="round" stroke-linejoin="round" stroke-miterlimit="10" fill="none" fill-rule="evenodd"/><path d="M378 516.5C385.245 516.5 388.863 512.5 395 512.5" stroke="#696969" stroke-width="0.514436" stroke-linecap="round" stroke-linejoin="round" stroke-miterlimit="10" fill="none" fill-rule="evenodd"/><path d="M378 516C387.846 516 382.794 543 395 543" stroke="#696969" stroke-width="0.514436" stroke-linecap="round" stroke-linejoin="round" stroke-miterlimit="10" fill="none" fill-rule="evenodd"/><path d="M378 517C389.324 517 379.345 562 395 562" stroke="#696969" stroke-width="0.514436" stroke-linecap="round" stroke-linejoin="round" stroke-miterlimit="10" fill="none" fill-rule="evenodd"/><path d="M272 684C283.9 684 272 597 289 597" stroke="#696969" stroke-width="0.514436" stroke-linecap="round" stroke-linejoin="round" stroke-miterlimit="10" fill="none" fill-rule="evenodd"/><path d="M272 683.5C283.9 683.5 272 615.5 289 615.5" stroke="#696969" stroke-width="0.514436" stroke-linecap="round" stroke-linejoin="round" stroke-miterlimit="10" fill="none" fill-rule="evenodd"/><path d="M272 684C283.505 684 272.923 635 289 635" stroke="#696969" stroke-width="0.514436" stroke-linecap="round" stroke-linejoin="round" stroke-miterlimit="10" fill="none" fill-rule="evenodd"/><path d="M272 684C282.177 684 276.021 653 289 653" stroke="#696969" stroke-width="0.514436" stroke-linecap="round" stroke-linejoin="round" stroke-miterlimit="10" fill="none" fill-rule="evenodd"/><path d="M272 684C283.298 684 273.405 729 289 729" stroke="#696969" stroke-width="0.514436" stroke-linecap="round" stroke-linejoin="round" stroke-miterlimit="10" fill="none" fill-rule="evenodd"/><path d="M341 729C352.779 729 341.282 672 358 672" stroke="#696969" stroke-width="0.514436" stroke-linecap="round" stroke-linejoin="round" stroke-miterlimit="10" fill="none" fill-rule="evenodd"/><path d="M341 729C351.801 729 343.565 692 358 692" stroke="#696969" stroke-width="0.514436" stroke-linecap="round" stroke-linejoin="round" stroke-miterlimit="10" fill="none" fill-rule="evenodd"/><path d="M341 729C350.022 729 347.715 710 358 710" stroke="#696969" stroke-width="0.514436" stroke-linecap="round" stroke-linejoin="round" stroke-miterlimit="10" fill="none" fill-rule="evenodd"/><path d="M341 729C350.022 729 347.715 748 358 748" stroke="#696969" stroke-width="0.514436" stroke-linecap="round" stroke-linejoin="round" stroke-miterlimit="10" fill="none" fill-rule="evenodd"/><path d="M341 729C352.779 729 341.282 786 358 786" stroke="#696969" stroke-width="0.514436" stroke-linecap="round" stroke-linejoin="round" stroke-miterlimit="10" fill="none" fill-rule="evenodd"/><path d="M386 672.5C392.8 672.5 397.9 672.5 403 672.5" stroke="#696969" stroke-width="0.514436" stroke-linecap="round" stroke-linejoin="round" stroke-miterlimit="10" fill="none" fill-rule="evenodd"/><path d="M394 691.5C400.8 691.5 405.9 691.5 411 691.5" stroke="#696969" stroke-width="0.514436" stroke-linecap="round" stroke-linejoin="round" stroke-miterlimit="10" fill="none" fill-rule="evenodd"/><path d="M402 710.5C408.8 710.5 413.9 710.5 419 710.5" stroke="#696969" stroke-width="0.514436" stroke-linecap="round" stroke-linejoin="round" stroke-miterlimit="10" fill="none" fill-rule="evenodd"/><path d="M394 748C403.022 748 400.715 729 411 729" stroke="#696969" stroke-width="0.514436" stroke-linecap="round" stroke-linejoin="round" stroke-miterlimit="10" fill="none" fill-rule="evenodd"/><path d="M394 747.5C400.8 747.5 405.9 747.5 411 747.5" stroke="#696969" stroke-width="0.514436" stroke-linecap="round" stroke-linejoin="round" stroke-miterlimit="10" fill="none" fill-rule="evenodd"/><path d="M394 748C403.022 748 400.715 767 411 767" stroke="#696969" stroke-width="0.514436" stroke-linecap="round" stroke-linejoin="round" stroke-miterlimit="10" fill="none" fill-rule="evenodd"/><path d="M394 785.5C400.8 785.5 405.9 785.5 411 785.5" stroke="#696969" stroke-width="0.514436" stroke-linecap="round" stroke-linejoin="round" stroke-miterlimit="10" fill="none" fill-rule="evenodd"/><path d="M272 832C280.174 832 280.695 821 289 821" stroke="#696969" stroke-width="0.514436" stroke-linecap="round" stroke-linejoin="round" stroke-miterlimit="10" fill="none" fill-rule="evenodd"/><path d="M272 831.5C279.704 831.5 281.791 839.5 289 839.5" stroke="#696969" stroke-width="0.514436" stroke-linecap="round" stroke-linejoin="round" stroke-miterlimit="10" fill="none" fill-rule="evenodd"/><path d="M272 832.5C281.801 832.5 276.898 858.5 289 858.5" stroke="#696969" stroke-width="0.514436" stroke-linecap="round" stroke-linejoin="round" stroke-miterlimit="10" fill="none" fill-rule="evenodd"/><path d="M134.266 677.484C164.326 741.137 145.484 904.484 227.266 904.484" stroke="#696969" stroke-width="0.514436" stroke-linecap="round" stroke-linejoin="round" stroke-miterlimit="10" fill="none" fill-rule="evenodd"/><path d="M272 905C280.174 905 280.695 894 289 894" stroke="#696969" stroke-width="0.514436" stroke-linecap="round" stroke-linejoin="round" stroke-miterlimit="10" fill="none" fill-rule="evenodd"/><path d="M272 905C280.803 905 279.227 922 289 922" stroke="#696969" stroke-width="0.514436" stroke-linecap="round" stroke-linejoin="round" stroke-miterlimit="10" fill="none" fill-rule="evenodd"/><path d="M333 893.5C339.8 893.5 344.9 893.5 350 893.5" stroke="#696969" stroke-width="0.514436" stroke-linecap="round" stroke-linejoin="round" stroke-miterlimit="10" fill="none" fill-rule="evenodd"/><path d="M333 922C340.94 922 342.24 913 350 913" stroke="#696969" stroke-width="0.514436" stroke-linecap="round" stroke-linejoin="round" stroke-miterlimit="10" fill="none" fill-rule="evenodd"/><path d="M333 922C340.94 922 342.24 931 350 931" stroke="#696969" stroke-width="0.514436" stroke-linecap="round" stroke-linejoin="round" stroke-miterlimit="10" fill="none" fill-rule="evenodd"/><path d="M132.155 678.476C165.971 755.992 131.441 987.476 227.155 987.476" stroke="#696969" stroke-width="0.514436" stroke-linecap="round" stroke-linejoin="round" stroke-miterlimit="10" fill="none" fill-rule="evenodd"/><path d="M272 986.5C279.704 986.5 281.791 994.5 289 994.5" stroke="#696969" stroke-width="0.514436" stroke-linecap="round" stroke-linejoin="round" stroke-miterlimit="10" fill="none" fill-rule="evenodd"/><path d="M325 994.5C334.992 994.5 329.452 966.5 342 966.5" stroke="#696969" stroke-width="0.514436" stroke-linecap="round" stroke-linejoin="round" stroke-miterlimit="10" fill="none" fill-rule="evenodd"/><path d="M325 994.5C332.94 994.5 334.24 984.5 342 984.5" stroke="#696969" stroke-width="0.514436" stroke-linecap="round" stroke-linejoin="round" stroke-miterlimit="10" fill="none" fill-rule="evenodd"/><path d="M325 995C332.94 995 334.24 1004 342 1004" stroke="#696969" stroke-width="0.514436" stroke-linecap="round" stroke-linejoin="round" stroke-miterlimit="10" fill="none" fill-rule="evenodd"/><path d="M325 994C334.992 994 329.452 1023 342 1023" stroke="#696969" stroke-width="0.514436" stroke-linecap="round" stroke-linejoin="round" stroke-miterlimit="10" fill="none" fill-rule="evenodd"/><path d="M129.266 677.983C169.264 775.581 119.283 1125.98 227.266 1125.98" stroke="#696969" stroke-width="0.514436" stroke-linecap="round" stroke-linejoin="round" stroke-miterlimit="10" fill="none" fill-rule="evenodd"/><path d="M272 1125.5C279.704 1125.5 281.791 1133.5 289 1133.5" stroke="#696969" stroke-width="0.514436" stroke-linecap="round" stroke-linejoin="round" stroke-miterlimit="10" fill="none" fill-rule="evenodd"/><path d="M333 1133.5C344.9 1133.5 333 1057.5 350 1057.5" stroke="#696969" stroke-width="0.514436" stroke-linecap="round" stroke-linejoin="round" stroke-miterlimit="10" fill="none" fill-rule="evenodd"/><path d="M333 1133.5C344.779 1133.5 333.282 1077.5 350 1077.5" stroke="#696969" stroke-width="0.514436" stroke-linecap="round" stroke-linejoin="round" stroke-miterlimit="10" fill="none" fill-rule="evenodd"/><path d="M333 1133.5C343.801 1133.5 335.565 1095.5 350 1095.5" stroke="#696969" stroke-width="0.514436" stroke-linecap="round" stroke-linejoin="round" stroke-miterlimit="10" fill="none" fill-rule="evenodd"/><path d="M333 1133C342.022 1133 339.715 1114 350 1114" stroke="#696969" stroke-width="0.514436" stroke-linecap="round" stroke-linejoin="round" stroke-miterlimit="10" fill="none" fill-rule="evenodd"/><path d="M333 1133.5C339.8 1133.5 344.9 1133.5 350 1133.5" stroke="#696969" stroke-width="0.514436" stroke-linecap="round" stroke-linejoin="round" stroke-miterlimit="10" fill="none" fill-rule="evenodd"/><path d="M333 1133C342.022 1133 339.715 1152 350 1152" stroke="#696969" stroke-width="0.514436" stroke-linecap="round" stroke-linejoin="round" stroke-miterlimit="10" fill="none" fill-rule="evenodd"/><path d="M333 1133.5C343.801 1133.5 335.565 1171.5 350 1171.5" stroke="#696969" stroke-width="0.514436" stroke-linecap="round" stroke-linejoin="round" stroke-miterlimit="10" fill="none" fill-rule="evenodd"/><path d="M333 1133C344.779 1133 333.282 1190 350 1190" stroke="#696969" stroke-width="0.514436" stroke-linecap="round" stroke-linejoin="round" stroke-miterlimit="10" fill="none" fill-rule="evenodd"/><path d="M333 1134C344.9 1134 333 1209 350 1209" stroke="#696969" stroke-width="0.514436" stroke-linecap="round" stroke-linejoin="round" stroke-miterlimit="10" fill="none" fill-rule="evenodd"/><path d="M378 1057.5C384.8 1057.5 389.9 1057.5 395 1057.5" stroke="#696969" stroke-width="0.514436" stroke-linecap="round" stroke-linejoin="round" stroke-miterlimit="10" fill="none" fill-rule="evenodd"/><path d="M378 1076.5C384.8 1076.5 389.9 1076.5 395 1076.5" stroke="#696969" stroke-width="0.514436" stroke-linecap="round" stroke-linejoin="round" stroke-miterlimit="10" fill="none" fill-rule="evenodd"/><path d="M378 1095.5C384.8 1095.5 389.9 1095.5 395 1095.5" stroke="#696969" stroke-width="0.514436" stroke-linecap="round" stroke-linejoin="round" stroke-miterlimit="10" fill="none" fill-rule="evenodd"/><path d="M378 1114.5C384.8 1114.5 389.9 1114.5 395 1114.5" stroke="#696969" stroke-width="0.514436" stroke-linecap="round" stroke-linejoin="round" stroke-miterlimit="10" fill="none" fill-rule="evenodd"/><path d="M378 1133.5C384.8 1133.5 389.9 1133.5 395 1133.5" stroke="#696969" stroke-width="0.514436" stroke-linecap="round" stroke-linejoin="round" stroke-miterlimit="10" fill="none" fill-rule="evenodd"/><path d="M378 1152.5C384.8 1152.5 389.9 1152.5 395 1152.5" stroke="#696969" stroke-width="0.514436" stroke-linecap="round" stroke-linejoin="round" stroke-miterlimit="10" fill="none" fill-rule="evenodd"/><path d="M378 1171.5C384.8 1171.5 389.9 1171.5 395 1171.5" stroke="#696969" stroke-width="0.514436" stroke-linecap="round" stroke-linejoin="round" stroke-miterlimit="10" fill="none" fill-rule="evenodd"/><path d="M378 1190.5C384.8 1190.5 389.9 1190.5 395 1190.5" stroke="#696969" stroke-width="0.514436" stroke-linecap="round" stroke-linejoin="round" stroke-miterlimit="10" fill="none" fill-rule="evenodd"/><path d="M378 1208.5C384.8 1208.5 389.9 1208.5 395 1208.5" stroke="#696969" stroke-width="0.514436" stroke-linecap="round" stroke-linejoin="round" stroke-miterlimit="10" fill="none" fill-rule="evenodd"/><path d="M18.5055 628 184.494 628C186.178 628 187 628.784 187 630.39L187 674.61C187 676.216 186.178 677 184.494 677L18.5055 677C16.8218 677 16 676.216 16 674.61L16 630.39C16 628.784 16.8218 628 18.5055 628Z" stroke="#435FBC" stroke-width="1.54331" stroke-linejoin="round" stroke-miterlimit="10" fill="#435FBC" fill-rule="evenodd"/><text fill="#FFFFFF" font-family="Microsoft YaHei,Microsoft YaHei_MSFontService,sans-serif" font-weight="400" font-size="9" transform="translate(57.2601 650)">语言表达简明、连贯、得体<tspan font-size="9" x="18.6667" y="11">准确、鲜明、生动</tspan></text><path d="M230.035 318.5 269.965 318.5C271.668 318.5 272.5 319.28 272.5 320.878L272.5 338.122C272.5 339.72 271.668 340.5 269.965 340.5L230.035 340.5C228.332 340.5 227.5 339.72 227.5 338.122L227.5 320.878C227.5 319.28 228.332 318.5 230.035 318.5Z" stroke="#EBECF3" stroke-width="0.514436" stroke-linejoin="round" stroke-miterlimit="10" fill="#EBECF3" fill-rule="evenodd"/><text fill="#303030" font-family="Microsoft YaHei,Microsoft YaHei_MSFontService,sans-serif" font-weight="400" font-size="8" transform="translate(241.196 331)">连贯</text><path d="M230.035 672.5 269.965 672.5C271.668 672.5 272.5 673.316 272.5 674.987L272.5 693.014C272.5 694.684 271.668 695.5 269.965 695.5L230.035 695.5C228.332 695.5 227.5 694.684 227.5 693.014L227.5 674.987C227.5 673.316 228.332 672.5 230.035 672.5Z" stroke="#EBECF3" stroke-width="0.514436" stroke-linejoin="round" stroke-miterlimit="10" fill="#EBECF3" fill-rule="evenodd"/><text fill="#303030" font-family="Microsoft YaHei,Microsoft YaHei_MSFontService,sans-serif" font-weight="400" font-size="8" transform="translate(241.196 685)">得体</text><path d="M230.035 820.5 269.965 820.5C271.668 820.5 272.5 821.316 272.5 822.987L272.5 841.014C272.5 842.684 271.668 843.5 269.965 843.5L230.035 843.5C228.332 843.5 227.5 842.684 227.5 841.014L227.5 822.987C227.5 821.316 228.332 820.5 230.035 820.5Z" stroke="#EBECF3" stroke-width="0.514436" stroke-linejoin="round" stroke-miterlimit="10" fill="#EBECF3" fill-rule="evenodd"/><text fill="#303030" font-family="Microsoft YaHei,Microsoft YaHei_MSFontService,sans-serif" font-weight="400" font-size="8" transform="translate(241.196 834)">简明</text><path d="M289.5 178.5 316.5 178.5" stroke="#696969" stroke-width="0.514436" stroke-linejoin="round" stroke-miterlimit="10" fill="none" fill-rule="evenodd"/><text fill="#454545" font-family="Microsoft YaHei,Microsoft YaHei_MSFontService,sans-serif" font-weight="400" font-size="7" transform="translate(295.751 172)">复位</text><path d="M289.5 347.5 316.5 347.5" stroke="#696969" stroke-width="0.514436" stroke-linejoin="round" stroke-miterlimit="10" fill="none" fill-rule="evenodd"/><text fill="#454545" font-family="Microsoft YaHei,Microsoft YaHei_MSFontService,sans-serif" font-weight="400" font-size="7" transform="translate(295.751 342)">排序</text><path d="M289.5 506.5 316.5 506.5" stroke="#696969" stroke-width="0.514436" stroke-linejoin="round" stroke-miterlimit="10" fill="none" fill-rule="evenodd"/><text fill="#454545" font-family="Microsoft YaHei,Microsoft YaHei_MSFontService,sans-serif" font-weight="400" font-size="7" transform="translate(295.751 501)">补句</text><path d="M333.5 112.5 377.5 112.5" stroke="#696969" stroke-width="0.514436" stroke-linejoin="round" stroke-miterlimit="10" fill="none" fill-rule="evenodd"/><text fill="#454545" font-family="Microsoft YaHei,Microsoft YaHei_MSFontService,sans-serif" font-weight="400" font-size="7" transform="translate(341.867 106)">话题一致</text><path d="M333.5 130.5 394.5 130.5" stroke="#696969" stroke-width="0.514436" stroke-linejoin="round" stroke-miterlimit="10" fill="none" fill-rule="evenodd"/><text fill="#454545" font-family="Microsoft YaHei,Microsoft YaHei_MSFontService,sans-serif" font-weight="400" font-size="7" transform="translate(343.369 125)">陈述对象一致</text><path d="M333.5 149.5 434.5 149.5" stroke="#696969" stroke-width="0.514436" stroke-linejoin="round" stroke-miterlimit="10" fill="none" fill-rule="evenodd"/><text fill="#454545" font-family="Microsoft YaHei,Microsoft YaHei_MSFontService,sans-serif" font-weight="400" font-size="7" transform="translate(347.124 143)">语义重点一致，事理相承</text><path d="M333.5 168.5 418.5 168.5" stroke="#696969" stroke-width="0.514436" stroke-linejoin="round" stroke-miterlimit="10" fill="none" fill-rule="evenodd"/><text fill="#454545" font-family="Microsoft YaHei,Microsoft YaHei_MSFontService,sans-serif" font-weight="400" font-size="7" transform="translate(345.622 162)">语脉相承，前后勾连</text><path d="M333.5 187.5 377.5 187.5" stroke="#696969" stroke-width="0.514436" stroke-linejoin="round" stroke-miterlimit="10" fill="none" fill-rule="evenodd"/><text fill="#454545" font-family="Microsoft YaHei,Microsoft YaHei_MSFontService,sans-serif" font-weight="400" font-size="7" transform="translate(341.867 181)">意境协调</text><path d="M333.5 206.5 377.5 206.5" stroke="#696969" stroke-width="0.514436" stroke-linejoin="round" stroke-miterlimit="10" fill="none" fill-rule="evenodd"/><text fill="#454545" font-family="Microsoft YaHei,Microsoft YaHei_MSFontService,sans-serif" font-weight="400" font-size="7" transform="translate(341.867 200)">句式一致</text><path d="M333.5 225.5 377.5 225.5" stroke="#696969" stroke-width="0.514436" stroke-linejoin="round" stroke-miterlimit="10" fill="none" fill-rule="evenodd"/><text fill="#454545" font-family="Microsoft YaHei,Microsoft YaHei_MSFontService,sans-serif" font-weight="400" font-size="7" transform="translate(341.867 219)">音韵和谐</text><path d="M333.5 244.5 385.5 244.5" stroke="#696969" stroke-width="0.514436" stroke-linejoin="round" stroke-miterlimit="10" fill="none" fill-rule="evenodd"/><text fill="#454545" font-family="Microsoft YaHei,Microsoft YaHei_MSFontService,sans-serif" font-weight="400" font-size="7" transform="translate(342.618 238)">前后文照应</text><path d="M333.5 263.5 443.5 263.5" stroke="#696969" stroke-width="0.514436" stroke-linejoin="round" stroke-miterlimit="10" fill="none" fill-rule="evenodd"/><text fill="#454545" font-family="Microsoft YaHei,Microsoft YaHei_MSFontService,sans-serif" font-weight="400" font-size="7" transform="translate(347.875 257)">整体把握思路，给句群分类</text><path d="M333.5 310.5 377.5 310.5" stroke="#696969" stroke-width="0.514436" stroke-linejoin="round" stroke-miterlimit="10" fill="none" fill-rule="evenodd"/><text fill="#454545" font-family="Microsoft YaHei,Microsoft YaHei_MSFontService,sans-serif" font-weight="400" font-size="7" transform="translate(341.867 304)">找关键句</text><path d="M394.5 281.5 487.5 281.5" stroke="#696969" stroke-width="0.514436" stroke-linejoin="round" stroke-miterlimit="10" fill="none" fill-rule="evenodd"/><text fill="#454545" font-family="Microsoft YaHei,Microsoft YaHei_MSFontService,sans-serif" font-weight="400" font-size="7" transform="translate(407.324 276)">首句：总起句、话题句</text><path d="M394.5 300.5 454.5 300.5" stroke="#696969" stroke-width="0.514436" stroke-linejoin="round" stroke-miterlimit="10" fill="none" fill-rule="evenodd"/><text fill="#454545" font-family="Microsoft YaHei,Microsoft YaHei_MSFontService,sans-serif" font-weight="400" font-size="7" transform="translate(404.32 294)">尾句：总结句</text><path d="M394.5 319.5 585.5 319.5" stroke="#696969" stroke-width="0.514436" stroke-linejoin="round" stroke-miterlimit="10" fill="none" fill-rule="evenodd"/><text fill="#454545" font-family="Microsoft YaHei,Microsoft YaHei_MSFontService,sans-serif" font-weight="400" font-size="7" transform="translate(416.336 313)">连接句：观点材料、解说、对偶排比、关键词连接</text><path d="M394.5 338.5 430.5 338.5" stroke="#696969" stroke-width="0.514436" stroke-linejoin="round" stroke-miterlimit="10" fill="none" fill-rule="evenodd"/><text fill="#454545" font-family="Microsoft YaHei,Microsoft YaHei_MSFontService,sans-serif" font-weight="400" font-size="7" transform="translate(402.067 332)">过渡句</text><path d="M333.5 376.5 377.5 376.5" stroke="#696969" stroke-width="0.514436" stroke-linejoin="round" stroke-miterlimit="10" fill="none" fill-rule="evenodd"/><text fill="#454545" font-family="Microsoft YaHei,Microsoft YaHei_MSFontService,sans-serif" font-weight="400" font-size="7" transform="translate(341.867 370)">找关键词</text><path d="M394.5 357.5 430.5 357.5" stroke="#696969" stroke-width="0.514436" stroke-linejoin="round" stroke-miterlimit="10" fill="none" fill-rule="evenodd"/><text fill="#454545" font-family="Microsoft YaHei,Microsoft YaHei_MSFontService,sans-serif" font-weight="400" font-size="7" transform="translate(402.067 351)">关联词</text><path d="M394.5 376.5 422.5 376.5" stroke="#696969" stroke-width="0.514436" stroke-linejoin="round" stroke-miterlimit="10" fill="none" fill-rule="evenodd"/><text fill="#454545" font-family="Microsoft YaHei,Microsoft YaHei_MSFontService,sans-serif" font-weight="400" font-size="7" transform="translate(401.316 370)">代词</text><path d="M394.5 395.5 446.5 395.5" stroke="#696969" stroke-width="0.514436" stroke-linejoin="round" stroke-miterlimit="10" fill="none" fill-rule="evenodd"/><text fill="#454545" font-family="Microsoft YaHei,Microsoft YaHei_MSFontService,sans-serif" font-weight="400" font-size="7" transform="translate(403.569 389)">暗示性词语</text><path d="M333.5 414.5 402.5 414.5" stroke="#696969" stroke-width="0.514436" stroke-linejoin="round" stroke-miterlimit="10" fill="none" fill-rule="evenodd"/><text fill="#454545" font-family="Microsoft YaHei,Microsoft YaHei_MSFontService,sans-serif" font-weight="400" font-size="7" transform="translate(344.12 408)">注意前后文语境</text><path d="M333.5 432.5 394.5 432.5" stroke="#696969" stroke-width="0.514436" stroke-linejoin="round" stroke-miterlimit="10" fill="none" fill-rule="evenodd"/><text fill="#454545" font-family="Microsoft YaHei,Microsoft YaHei_MSFontService,sans-serif" font-weight="400" font-size="7" transform="translate(343.369 427)">注意标点提示</text><path d="M333.5 451.5 459.5 451.5" stroke="#696969" stroke-width="0.514436" stroke-linejoin="round" stroke-miterlimit="10" fill="none" fill-rule="evenodd"/><text fill="#454545" font-family="Microsoft YaHei,Microsoft YaHei_MSFontService,sans-serif" font-weight="400" font-size="7" transform="translate(349.377 445)">整体感知：中心话题、文段层次</text><path d="M333.5 516.5 377.5 516.5" stroke="#696969" stroke-width="0.514436" stroke-linejoin="round" stroke-miterlimit="10" fill="none" fill-rule="evenodd"/><text fill="#454545" font-family="Microsoft YaHei,Microsoft YaHei_MSFontService,sans-serif" font-weight="400" font-size="7" transform="translate(341.867 510)">明确位置</text><path d="M394.5 470.5 487.5 470.5" stroke="#696969" stroke-width="0.514436" stroke-linejoin="round" stroke-miterlimit="10" fill="none" fill-rule="evenodd"/><text fill="#454545" font-family="Microsoft YaHei,Microsoft YaHei_MSFontService,sans-serif" font-weight="400" font-size="7" transform="translate(407.324 464)">总起句：概括语段内容</text><path d="M394.5 512.5 487.5 512.5" stroke="#696969" stroke-width="0.514436" stroke-linejoin="round" stroke-miterlimit="10" fill="none" fill-rule="evenodd"/><text fill="#454545" font-family="Microsoft YaHei,Microsoft YaHei_MSFontService,sans-serif" font-weight="400" font-size="7" transform="translate(404.296 487)">过渡句：内容前后关联<tspan font-size="7" x="24" y="8">结构承上启下</tspan><tspan font-size="7" x="24" y="16">使用连词</tspan></text><path d="M394.5 543.5 487.5 543.5" stroke="#696969" stroke-width="0.514436" stroke-linejoin="round" stroke-miterlimit="10" fill="none" fill-rule="evenodd"/><text fill="#454545" font-family="Microsoft YaHei,Microsoft YaHei_MSFontService,sans-serif" font-weight="400" font-size="7" transform="translate(404.296 527)">展开句：内容上扣得紧<tspan font-size="7" x="16" y="8">形式上接得上</tspan></text><path d="M394.5 561.5 479.5 561.5" stroke="#696969" stroke-width="0.514436" stroke-linejoin="round" stroke-miterlimit="10" fill="none" fill-rule="evenodd"/><text fill="#454545" font-family="Microsoft YaHei,Microsoft YaHei_MSFontService,sans-serif" font-weight="400" font-size="7" transform="translate(406.573 556)">总结句：准确、全面</text><path d="M289.5 596.5 324.5 596.5" stroke="#696969" stroke-width="0.514436" stroke-linejoin="round" stroke-miterlimit="10" fill="none" fill-rule="evenodd"/><text fill="#454545" font-family="Microsoft YaHei,Microsoft YaHei_MSFontService,sans-serif" font-weight="400" font-size="7" transform="translate(296.502 591)">明敬谦</text><path d="M289.5 615.5 324.5 615.5" stroke="#696969" stroke-width="0.514436" stroke-linejoin="round" stroke-miterlimit="10" fill="none" fill-rule="evenodd"/><text fill="#454545" font-family="Microsoft YaHei,Microsoft YaHei_MSFontService,sans-serif" font-weight="400" font-size="7" transform="translate(296.502 610)">明身份</text><path d="M289.5 634.5 324.5 634.5" stroke="#696969" stroke-width="0.514436" stroke-linejoin="round" stroke-miterlimit="10" fill="none" fill-rule="evenodd"/><text fill="#454545" font-family="Microsoft YaHei,Microsoft YaHei_MSFontService,sans-serif" font-weight="400" font-size="7" transform="translate(296.502 628)">明对象</text><path d="M289.5 653.5 324.5 653.5" stroke="#696969" stroke-width="0.514436" stroke-linejoin="round" stroke-miterlimit="10" fill="none" fill-rule="evenodd"/><text fill="#454545" font-family="Microsoft YaHei,Microsoft YaHei_MSFontService,sans-serif" font-weight="400" font-size="7" transform="translate(296.502 647)">明场合</text><path d="M289.5 729.5 341.5 729.5" stroke="#696969" stroke-width="0.514436" stroke-linejoin="round" stroke-miterlimit="10" fill="none" fill-rule="evenodd"/><text fill="#454545" font-family="Microsoft YaHei,Microsoft YaHei_MSFontService,sans-serif" font-weight="400" font-size="7" transform="translate(298.004 723)">应用文写作</text><path d="M358.5 672.5 385.5 672.5" stroke="#696969" stroke-width="0.514436" stroke-linejoin="round" stroke-miterlimit="10" fill="none" fill-rule="evenodd"/><text fill="#454545" font-family="Microsoft YaHei,Microsoft YaHei_MSFontService,sans-serif" font-weight="400" font-size="7" transform="translate(364.871 666)">前言</text><path d="M358.5 691.5 394.5 691.5" stroke="#696969" stroke-width="0.514436" stroke-linejoin="round" stroke-miterlimit="10" fill="none" fill-rule="evenodd"/><text fill="#454545" font-family="Microsoft YaHei,Microsoft YaHei_MSFontService,sans-serif" font-weight="400" font-size="7" transform="translate(365.622 685)">推荐语</text><path d="M358.5 710.5 402.5 710.5" stroke="#696969" stroke-width="0.514436" stroke-linejoin="round" stroke-miterlimit="10" fill="none" fill-rule="evenodd"/><text fill="#454545" font-family="Microsoft YaHei,Microsoft YaHei_MSFontService,sans-serif" font-weight="400" font-size="7" transform="translate(366.373 704)">广告宣传</text><path d="M358.5 747.5 394.5 747.5" stroke="#696969" stroke-width="0.514436" stroke-linejoin="round" stroke-miterlimit="10" fill="none" fill-rule="evenodd"/><text fill="#454545" font-family="Microsoft YaHei,Microsoft YaHei_MSFontService,sans-serif" font-weight="400" font-size="7" transform="translate(365.622 742)">串场词</text><path d="M358.5 785.5 394.5 785.5" stroke="#696969" stroke-width="0.514436" stroke-linejoin="round" stroke-miterlimit="10" fill="none" fill-rule="evenodd"/><text fill="#454545" font-family="Microsoft YaHei,Microsoft YaHei_MSFontService,sans-serif" font-weight="400" font-size="7" transform="translate(365.622 779)">倡议书</text><path d="M402.5 672.5 544.5 672.5" stroke="#696969" stroke-width="0.514436" stroke-linejoin="round" stroke-miterlimit="10" fill="none" fill-rule="evenodd"/><text fill="#454545" font-family="Microsoft YaHei,Microsoft YaHei_MSFontService,sans-serif" font-weight="400" font-size="7" transform="translate(419.999 666)">开门见山、重点突出、表达因体而异</text><path d="M410.5 691.5 553.5 691.5" stroke="#696969" stroke-width="0.514436" stroke-linejoin="round" stroke-miterlimit="10" fill="none" fill-rule="evenodd"/><text fill="#454545" font-family="Microsoft YaHei,Microsoft YaHei_MSFontService,sans-serif" font-weight="400" font-size="7" transform="translate(428.168 685)">抓住特点、简明、有文采、用语得体</text><path d="M419.5 710.5 683.5 710.5" stroke="#696969" stroke-width="0.514436" stroke-linejoin="round" stroke-miterlimit="10" fill="none" fill-rule="evenodd"/><text fill="#454545" font-family="Microsoft YaHei,Microsoft YaHei_MSFontService,sans-serif" font-weight="400" font-size="7" transform="translate(447.602 704)">符合特点、形式整齐、语言通俗易懂、构思新颖、修辞丰富、注意韵律</text><path d="M410.5 729.5 569.5 729.5" stroke="#696969" stroke-width="0.514436" stroke-linejoin="round" stroke-miterlimit="10" fill="none" fill-rule="evenodd"/><text fill="#454545" font-family="Microsoft YaHei,Microsoft YaHei_MSFontService,sans-serif" font-weight="400" font-size="7" transform="translate(429.67 723)">开场白：紧扣主题、现场鼓动、锤炼语言</text><path d="M410.5 747.5 561.5 747.5" stroke="#696969" stroke-width="0.514436" stroke-linejoin="round" stroke-miterlimit="10" fill="none" fill-rule="evenodd"/><text fill="#454545" font-family="Microsoft YaHei,Microsoft YaHei_MSFontService,sans-serif" font-weight="400" font-size="7" transform="translate(428.919 742)">过渡词：衔接巧妙、用语得体、现场感</text><path d="M410.5 766.5 610.5 766.5" stroke="#696969" stroke-width="0.514436" stroke-linejoin="round" stroke-miterlimit="10" fill="none" fill-rule="evenodd"/><text fill="#454545" font-family="Microsoft YaHei,Microsoft YaHei_MSFontService,sans-serif" font-weight="400" font-size="7" transform="translate(433.425 761)">总结词：概括主题、启发深思、表达谢意、及时收场</text><path d="M410.5 785.5 536.5 785.5" stroke="#696969" stroke-width="0.514436" stroke-linejoin="round" stroke-miterlimit="10" fill="none" fill-rule="evenodd"/><text fill="#454545" font-family="Microsoft YaHei,Microsoft YaHei_MSFontService,sans-serif" font-weight="400" font-size="7" transform="translate(426.666 779)">认清情境、书信格式、具体做法</text><path d="M289.5 820.5 383.5 820.5" stroke="#696969" stroke-width="0.514436" stroke-linejoin="round" stroke-miterlimit="10" fill="none" fill-rule="evenodd"/><text fill="#454545" font-family="Microsoft YaHei,Microsoft YaHei_MSFontService,sans-serif" font-weight="400" font-size="7" transform="translate(303.054 814)">删赘余词语<tspan font-family="Calibri,Calibri_MSFontService,sans-serif" font-size="7" x="33.3333" y="0">——</tspan>找重复</text><path d="M289.5 839.5 399.5 839.5" stroke="#696969" stroke-width="0.514436" stroke-linejoin="round" stroke-miterlimit="10" fill="none" fill-rule="evenodd"/><text fill="#454545" font-family="Microsoft YaHei,Microsoft YaHei_MSFontService,sans-serif" font-weight="400" font-size="7" transform="translate(304.556 833)">删游离中心语句<tspan font-family="Calibri,Calibri_MSFontService,sans-serif" font-size="7" x="46.6667" y="0">——</tspan>找中心</text><path d="M289.5 858.5 538.5 858.5" stroke="#696969" stroke-width="0.514436" stroke-linejoin="round" stroke-miterlimit="10" fill="none" fill-rule="evenodd"/><text fill="#454545" font-family="Microsoft YaHei,Microsoft YaHei_MSFontService,sans-serif" font-weight="400" font-size="7" transform="translate(317.324 852)">巧用指代<tspan font-family="Calibri,Calibri_MSFontService,sans-serif" font-size="7" x="26.6667" y="0">——</tspan>避免指代不明（不用代词）、重复啰嗦（多用代词）</text><path d="M230.035 893.5 269.965 893.5C271.668 893.5 272.5 894.316 272.5 895.987L272.5 914.014C272.5 915.684 271.668 916.5 269.965 916.5L230.035 916.5C228.332 916.5 227.5 915.684 227.5 914.014L227.5 895.987C227.5 894.316 228.332 893.5 230.035 893.5Z" stroke="#EBECF3" stroke-width="0.514436" stroke-linejoin="round" stroke-miterlimit="10" fill="#EBECF3" fill-rule="evenodd"/><text fill="#303030" font-family="Microsoft YaHei,Microsoft YaHei_MSFontService,sans-serif" font-weight="400" font-size="8" transform="translate(241.196 906)">准确</text><path d="M289.5 893.5 333.5 893.5" stroke="#696969" stroke-width="0.514436" stroke-linejoin="round" stroke-miterlimit="10" fill="none" fill-rule="evenodd"/><text fill="#454545" font-family="Microsoft YaHei,Microsoft YaHei_MSFontService,sans-serif" font-weight="400" font-size="7" transform="translate(297.253 887)">用词准确</text><path d="M289.5 921.5 333.5 921.5" stroke="#696969" stroke-width="0.514436" stroke-linejoin="round" stroke-miterlimit="10" fill="none" fill-rule="evenodd"/><text fill="#454545" font-family="Microsoft YaHei,Microsoft YaHei_MSFontService,sans-serif" font-weight="400" font-size="7" transform="translate(297.253 915)">逻辑准确</text><path d="M350.5 893.5 459.5 893.5" stroke="#696969" stroke-width="0.514436" stroke-linejoin="round" stroke-miterlimit="10" fill="none" fill-rule="evenodd"/><text fill="#454545" font-family="Microsoft YaHei,Microsoft YaHei_MSFontService,sans-serif" font-weight="400" font-size="7" transform="translate(364.212 887)">注意范围、程度、情感态度</text><path d="M350.5 912.5 434.5 912.5" stroke="#696969" stroke-width="0.514436" stroke-linejoin="round" stroke-miterlimit="10" fill="none" fill-rule="evenodd"/><text fill="#454545" font-family="Microsoft YaHei,Microsoft YaHei_MSFontService,sans-serif" font-weight="400" font-size="7" transform="translate(361.959 906)">注意因果、条件关系</text><path d="M350.5 931.5 434.5 931.5" stroke="#696969" stroke-width="0.514436" stroke-linejoin="round" stroke-miterlimit="10" fill="none" fill-rule="evenodd"/><text fill="#454545" font-family="Microsoft YaHei,Microsoft YaHei_MSFontService,sans-serif" font-weight="400" font-size="7" transform="translate(361.959 925)">明确必然与或然关系</text><path d="M230.035 975.5 269.965 975.5C271.668 975.5 272.5 976.316 272.5 977.987L272.5 996.014C272.5 997.684 271.668 998.5 269.965 998.5L230.035 998.5C228.332 998.5 227.5 997.684 227.5 996.014L227.5 977.987C227.5 976.316 228.332 975.5 230.035 975.5Z" stroke="#EBECF3" stroke-width="0.514436" stroke-linejoin="round" stroke-miterlimit="10" fill="#EBECF3" fill-rule="evenodd"/><text fill="#303030" font-family="Microsoft YaHei,Microsoft YaHei_MSFontService,sans-serif" font-weight="400" font-size="8" transform="translate(241.196 989)">鲜明</text><path d="M289.5 994.5 324.5 994.5" stroke="#696969" stroke-width="0.514436" stroke-linejoin="round" stroke-miterlimit="10" fill="none" fill-rule="evenodd"/><text fill="#454545" font-family="Microsoft YaHei,Microsoft YaHei_MSFontService,sans-serif" font-weight="400" font-size="7" transform="translate(296.502 988)">写评论</text><path d="M341.5 966.5 402.5 966.5" stroke="#696969" stroke-width="0.514436" stroke-linejoin="round" stroke-miterlimit="10" fill="none" fill-rule="evenodd"/><text fill="#454545" font-family="Microsoft YaHei,Microsoft YaHei_MSFontService,sans-serif" font-weight="400" font-size="7" transform="translate(351.538 960)">认清评论对象</text><path d="M341.5 985.5 390.5 985.5" stroke="#696969" stroke-width="0.514436" stroke-linejoin="round" stroke-miterlimit="10" fill="none" fill-rule="evenodd"/><text fill="#454545" font-family="Microsoft YaHei,Microsoft YaHei_MSFontService,sans-serif" font-weight="400" font-size="7" transform="translate(352.235 979)">述<tspan font-family="Calibri,Calibri_MSFontService,sans-serif" font-size="7" x="6.66666" y="0">+</tspan><tspan font-size="7" x="10" y="0">评</tspan><tspan font-family="Calibri,Calibri_MSFontService,sans-serif" font-size="7" x="16.6667" y="0">+</tspan><tspan font-size="7" x="20" y="0">析</tspan></text><path d="M341.5 1004.5 385.5 1004.5" stroke="#696969" stroke-width="0.514436" stroke-linejoin="round" stroke-miterlimit="10" fill="none" fill-rule="evenodd"/><text fill="#454545" font-family="Microsoft YaHei,Microsoft YaHei_MSFontService,sans-serif" font-weight="400" font-size="7" transform="translate(350.036 998)">观点鲜明</text><path d="M341.5 1022.5 418.5 1022.5" stroke="#696969" stroke-width="0.514436" stroke-linejoin="round" stroke-miterlimit="10" fill="none" fill-rule="evenodd"/><text fill="#454545" font-family="Microsoft YaHei,Microsoft YaHei_MSFontService,sans-serif" font-weight="400" font-size="7" transform="translate(353.04 1017)">分析得当、有条理</text><path d="M230.035 1114.5 269.965 1114.5C271.668 1114.5 272.5 1115.32 272.5 1116.99L272.5 1135.01C272.5 1136.68 271.668 1137.5 269.965 1137.5L230.035 1137.5C228.332 1137.5 227.5 1136.68 227.5 1135.01L227.5 1116.99C227.5 1115.32 228.332 1114.5 230.035 1114.5Z" stroke="#EBECF3" stroke-width="0.514436" stroke-linejoin="round" stroke-miterlimit="10" fill="#EBECF3" fill-rule="evenodd"/><text fill="#303030" font-family="Microsoft YaHei,Microsoft YaHei_MSFontService,sans-serif" font-weight="400" font-size="8" transform="translate(241.196 1127)">生动</text><path d="M289.5 1133.5 333.5 1133.5" stroke="#696969" stroke-width="0.514436" stroke-linejoin="round" stroke-miterlimit="10" fill="none" fill-rule="evenodd"/><text fill="#454545" font-family="Microsoft YaHei,Microsoft YaHei_MSFontService,sans-serif" font-weight="400" font-size="7" transform="translate(297.253 1127)">修辞手法</text><path d="M350.5 1057.5 377.5 1057.5" stroke="#696969" stroke-width="0.514436" stroke-linejoin="round" stroke-miterlimit="10" fill="none" fill-rule="evenodd"/><text fill="#454545" font-family="Microsoft YaHei,Microsoft YaHei_MSFontService,sans-serif" font-weight="400" font-size="7" transform="translate(356.702 1052)">比喻</text><path d="M350.5 1076.5 377.5 1076.5" stroke="#696969" stroke-width="0.514436" stroke-linejoin="round" stroke-miterlimit="10" fill="none" fill-rule="evenodd"/><text fill="#454545" font-family="Microsoft YaHei,Microsoft YaHei_MSFontService,sans-serif" font-weight="400" font-size="7" transform="translate(356.702 1070)">借代</text><path d="M350.5 1095.5 377.5 1095.5" stroke="#696969" stroke-width="0.514436" stroke-linejoin="round" stroke-miterlimit="10" fill="none" fill-rule="evenodd"/><text fill="#454545" font-family="Microsoft YaHei,Microsoft YaHei_MSFontService,sans-serif" font-weight="400" font-size="7" transform="translate(356.702 1089)">比拟</text><path d="M350.5 1114.5 377.5 1114.5" stroke="#696969" stroke-width="0.514436" stroke-linejoin="round" stroke-miterlimit="10" fill="none" fill-rule="evenodd"/><text fill="#454545" font-family="Microsoft YaHei,Microsoft YaHei_MSFontService,sans-serif" font-weight="400" font-size="7" transform="translate(356.702 1108)">夸张</text><path d="M350.5 1133.5 377.5 1133.5" stroke="#696969" stroke-width="0.514436" stroke-linejoin="round" stroke-miterlimit="10" fill="none" fill-rule="evenodd"/><text fill="#454545" font-family="Microsoft YaHei,Microsoft YaHei_MSFontService,sans-serif" font-weight="400" font-size="7" transform="translate(356.702 1127)">对偶</text><path d="M350.5 1152.5 377.5 1152.5" stroke="#696969" stroke-width="0.514436" stroke-linejoin="round" stroke-miterlimit="10" fill="none" fill-rule="evenodd"/><text fill="#454545" font-family="Microsoft YaHei,Microsoft YaHei_MSFontService,sans-serif" font-weight="400" font-size="7" transform="translate(356.702 1146)">排比</text><path d="M350.5 1171.5 377.5 1171.5" stroke="#696969" stroke-width="0.514436" stroke-linejoin="round" stroke-miterlimit="10" fill="none" fill-rule="evenodd"/><text fill="#454545" font-family="Microsoft YaHei,Microsoft YaHei_MSFontService,sans-serif" font-weight="400" font-size="7" transform="translate(356.702 1165)">反复</text><path d="M350.5 1190.5 377.5 1190.5" stroke="#696969" stroke-width="0.514436" stroke-linejoin="round" stroke-miterlimit="10" fill="none" fill-rule="evenodd"/><text fill="#454545" font-family="Microsoft YaHei,Microsoft YaHei_MSFontService,sans-serif" font-weight="400" font-size="7" transform="translate(356.702 1184)">设问</text><path d="M350.5 1208.5 377.5 1208.5" stroke="#696969" stroke-width="0.514436" stroke-linejoin="round" stroke-miterlimit="10" fill="none" fill-rule="evenodd"/><text fill="#454545" font-family="Microsoft YaHei,Microsoft YaHei_MSFontService,sans-serif" font-weight="400" font-size="7" transform="translate(356.702 1203)">反问</text><path d="M394.5 1057.5 495.5 1057.5" stroke="#696969" stroke-width="0.514436" stroke-linejoin="round" stroke-miterlimit="10" fill="none" fill-rule="evenodd"/><text fill="#454545" font-family="Microsoft YaHei,Microsoft YaHei_MSFontService,sans-serif" font-weight="400" font-size="7" transform="translate(408.075 1052)">明喻、暗喻、借喻、博喻</text><path d="M394.5 1076.5 544.5 1076.5" stroke="#696969" stroke-width="0.514436" stroke-linejoin="round" stroke-miterlimit="10" fill="none" fill-rule="evenodd"/><text fill="#454545" font-family="Microsoft YaHei,Microsoft YaHei_MSFontService,sans-serif" font-weight="400" font-size="7" transform="translate(412.581 1070)">特征、材料、标志、具体、部分、专名</text><path d="M394.5 1095.5 446.5 1095.5" stroke="#696969" stroke-width="0.514436" stroke-linejoin="round" stroke-miterlimit="10" fill="none" fill-rule="evenodd"/><text fill="#454545" font-family="Microsoft YaHei,Microsoft YaHei_MSFontService,sans-serif" font-weight="400" font-size="7" transform="translate(403.569 1089)">拟人、拟物</text><path d="M394.5 1114.5 471.5 1114.5" stroke="#696969" stroke-width="0.514436" stroke-linejoin="round" stroke-miterlimit="10" fill="none" fill-rule="evenodd"/><text fill="#454545" font-family="Microsoft YaHei,Microsoft YaHei_MSFontService,sans-serif" font-weight="400" font-size="7" transform="translate(405.822 1108)">扩大、缩小、超前</text><path d="M394.5 1133.5 479.5 1133.5" stroke="#696969" stroke-width="0.514436" stroke-linejoin="round" stroke-miterlimit="10" fill="none" fill-rule="evenodd"/><text fill="#454545" font-family="Microsoft YaHei,Microsoft YaHei_MSFontService,sans-serif" font-weight="400" font-size="7" transform="translate(406.573 1127)">正对、反对、流水对</text><path d="M394.5 1152.5 495.5 1152.5" stroke="#696969" stroke-width="0.514436" stroke-linejoin="round" stroke-miterlimit="10" fill="none" fill-rule="evenodd"/><text fill="#454545" font-family="Microsoft YaHei,Microsoft YaHei_MSFontService,sans-serif" font-weight="400" font-size="7" transform="translate(408.075 1146)">短语、分句、单句、段落</text><path d="M394.5 1171.5 446.5 1171.5" stroke="#696969" stroke-width="0.514436" stroke-linejoin="round" stroke-miterlimit="10" fill="none" fill-rule="evenodd"/><text fill="#454545" font-family="Microsoft YaHei,Microsoft YaHei_MSFontService,sans-serif" font-weight="400" font-size="7" transform="translate(403.569 1165)">连续、间隔</text><path d="M394.5 1190.5 520.5 1190.5" stroke="#696969" stroke-width="0.514436" stroke-linejoin="round" stroke-miterlimit="10" fill="none" fill-rule="evenodd"/><text fill="#454545" font-family="Microsoft YaHei,Microsoft YaHei_MSFontService,sans-serif" font-weight="400" font-size="7" transform="translate(410.328 1184)">自问自答、他问他答、自拟问答</text><path d="M394.5 1208.5 446.5 1208.5" stroke="#696969" stroke-width="0.514436" stroke-linejoin="round" stroke-miterlimit="10" fill="none" fill-rule="evenodd"/><text fill="#454545" font-family="Microsoft YaHei,Microsoft YaHei_MSFontService,sans-serif" font-weight="400" font-size="7" transform="translate(403.569 1203)">肯定、否定</text></g></svg>