<svg width="720" height="1280" xmlns="http://www.w3.org/2000/svg" xmlns:xlink="http://www.w3.org/1999/xlink" overflow="hidden"><defs><clipPath id="clip0"><rect x="0" y="0" width="720" height="1280"/></clipPath></defs><g clip-path="url(#clip0)"><rect x="0" y="0" width="720" height="1280" fill="#FFFFFF"/><path d="M121.645 627.523C153.739 556.981 117.887 332.523 207.645 332.523" stroke="#696969" stroke-width="0.629921" stroke-linecap="round" stroke-linejoin="round" stroke-miterlimit="10" fill="none" fill-rule="evenodd"/><path d="M136.488 669.831C156.933 693.138 169.845 727.831 207.488 727.831" stroke="#696969" stroke-width="0.629921" stroke-linecap="round" stroke-linejoin="round" stroke-miterlimit="10" fill="none" fill-rule="evenodd"/><path d="M119.868 668.955C155.736 750.538 111.119 1042.96 207.868 1042.96" stroke="#696969" stroke-width="0.629921" stroke-linecap="round" stroke-linejoin="round" stroke-miterlimit="10" fill="none" fill-rule="evenodd"/><path d="M264 333.5C278.7 333.5 264 217.5 285 217.5" stroke="#696969" stroke-width="0.629921" stroke-linecap="round" stroke-linejoin="round" stroke-miterlimit="10" fill="none" fill-rule="evenodd"/><path d="M339.5 217.5C354.9 217.5 339.5 115.5 361.5 115.5" stroke="#696969" stroke-width="0.629921" stroke-linecap="round" stroke-linejoin="round" stroke-miterlimit="10" fill="none" fill-rule="evenodd"/><path d="M339.5 217.5C354.9 217.5 339.5 137.5 361.5 137.5" stroke="#696969" stroke-width="0.629921" stroke-linecap="round" stroke-linejoin="round" stroke-miterlimit="10" fill="none" fill-rule="evenodd"/><path d="M339.5 217.5C354.261 217.5 340.991 161.5 361.5 161.5" stroke="#696969" stroke-width="0.629921" stroke-linecap="round" stroke-linejoin="round" stroke-miterlimit="10" fill="none" fill-rule="evenodd"/><path d="M339.5 217.5C352.431 217.5 345.261 183.5 361.5 183.5" stroke="#696969" stroke-width="0.629921" stroke-linecap="round" stroke-linejoin="round" stroke-miterlimit="10" fill="none" fill-rule="evenodd"/><path d="M339.5 217.5C349.775 217.5 351.458 205.5 361.5 205.5" stroke="#696969" stroke-width="0.629921" stroke-linecap="round" stroke-linejoin="round" stroke-miterlimit="10" fill="none" fill-rule="evenodd"/><path d="M339.5 218C349.775 218 351.458 229 361.5 229" stroke="#696969" stroke-width="0.629921" stroke-linecap="round" stroke-linejoin="round" stroke-miterlimit="10" fill="none" fill-rule="evenodd"/><path d="M339.5 217.5C352.431 217.5 345.261 251.5 361.5 251.5" stroke="#696969" stroke-width="0.629921" stroke-linecap="round" stroke-linejoin="round" stroke-miterlimit="10" fill="none" fill-rule="evenodd"/><path d="M339.5 217C354.261 217 340.991 274 361.5 274" stroke="#696969" stroke-width="0.629921" stroke-linecap="round" stroke-linejoin="round" stroke-miterlimit="10" fill="none" fill-rule="evenodd"/><path d="M339.5 218C354.9 218 339.5 297 361.5 297" stroke="#696969" stroke-width="0.629921" stroke-linecap="round" stroke-linejoin="round" stroke-miterlimit="10" fill="none" fill-rule="evenodd"/><path d="M339.5 217.5C354.9 217.5 339.5 319.5 361.5 319.5" stroke="#696969" stroke-width="0.629921" stroke-linecap="round" stroke-linejoin="round" stroke-miterlimit="10" fill="none" fill-rule="evenodd"/><path d="M264 333C278.7 333 264 456 285 456" stroke="#696969" stroke-width="0.629921" stroke-linecap="round" stroke-linejoin="round" stroke-miterlimit="10" fill="none" fill-rule="evenodd"/><path d="M339.5 456C354.9 456 339.5 365 361.5 365" stroke="#696969" stroke-width="0.629921" stroke-linecap="round" stroke-linejoin="round" stroke-miterlimit="10" fill="none" fill-rule="evenodd"/><path d="M339.5 456.5C352.431 456.5 345.261 490.5 361.5 490.5" stroke="#696969" stroke-width="0.629921" stroke-linecap="round" stroke-linejoin="round" stroke-miterlimit="10" fill="none" fill-rule="evenodd"/><path d="M417 365C428.145 365 425.294 342 438 342" stroke="#696969" stroke-width="0.629921" stroke-linecap="round" stroke-linejoin="round" stroke-miterlimit="10" fill="none" fill-rule="evenodd"/><path d="M417 365.5C425.4 365.5 431.7 365.5 438 365.5" stroke="#696969" stroke-width="0.629921" stroke-linecap="round" stroke-linejoin="round" stroke-miterlimit="10" fill="none" fill-rule="evenodd"/><path d="M417 365C428.145 365 425.294 388 438 388" stroke="#696969" stroke-width="0.629921" stroke-linecap="round" stroke-linejoin="round" stroke-miterlimit="10" fill="none" fill-rule="evenodd"/><path d="M417 490C431.7 490 417 411 438 411" stroke="#696969" stroke-width="0.629921" stroke-linecap="round" stroke-linejoin="round" stroke-miterlimit="10" fill="none" fill-rule="evenodd"/><path d="M417 490C431.09 490 418.423 433 438 433" stroke="#696969" stroke-width="0.629921" stroke-linecap="round" stroke-linejoin="round" stroke-miterlimit="10" fill="none" fill-rule="evenodd"/><path d="M417 489.5C431.7 489.5 417 569.5 438 569.5" stroke="#696969" stroke-width="0.629921" stroke-linecap="round" stroke-linejoin="round" stroke-miterlimit="10" fill="none" fill-rule="evenodd"/><path d="M417 490.5C429.343 490.5 422.499 456.5 438 456.5" stroke="#696969" stroke-width="0.629921" stroke-linecap="round" stroke-linejoin="round" stroke-miterlimit="10" fill="none" fill-rule="evenodd"/><path d="M417 490C426.808 490 428.414 479 438 479" stroke="#696969" stroke-width="0.629921" stroke-linecap="round" stroke-linejoin="round" stroke-miterlimit="10" fill="none" fill-rule="evenodd"/><path d="M417 489.5C426.808 489.5 428.414 501.5 438 501.5" stroke="#696969" stroke-width="0.629921" stroke-linecap="round" stroke-linejoin="round" stroke-miterlimit="10" fill="none" fill-rule="evenodd"/><path d="M417 490.5C429.343 490.5 422.499 524.5 438 524.5" stroke="#696969" stroke-width="0.629921" stroke-linecap="round" stroke-linejoin="round" stroke-miterlimit="10" fill="none" fill-rule="evenodd"/><path d="M417 490C431.09 490 418.423 547 438 547" stroke="#696969" stroke-width="0.629921" stroke-linecap="round" stroke-linejoin="round" stroke-miterlimit="10" fill="none" fill-rule="evenodd"/><path d="M264 728C272.721 728 277.952 725 285 725" stroke="#696969" stroke-width="0.629921" stroke-linecap="round" stroke-linejoin="round" stroke-miterlimit="10" fill="none" fill-rule="evenodd"/><path d="M320 725.5C334.7 725.5 320 623.5 341 623.5" stroke="#696969" stroke-width="0.629921" stroke-linecap="round" stroke-linejoin="round" stroke-miterlimit="10" fill="none" fill-rule="evenodd"/><path d="M320 725.5C328.4 725.5 334.7 725.5 341 725.5" stroke="#696969" stroke-width="0.629921" stroke-linecap="round" stroke-linejoin="round" stroke-miterlimit="10" fill="none" fill-rule="evenodd"/><path d="M320 725.5C334.7 725.5 320 827.5 341 827.5" stroke="#696969" stroke-width="0.629921" stroke-linecap="round" stroke-linejoin="round" stroke-miterlimit="10" fill="none" fill-rule="evenodd"/><path d="M395.5 623C405.775 623 407.458 612 417.5 612" stroke="#696969" stroke-width="0.629921" stroke-linecap="round" stroke-linejoin="round" stroke-miterlimit="10" fill="none" fill-rule="evenodd"/><path d="M395.5 622.5C405.775 622.5 407.458 634.5 417.5 634.5" stroke="#696969" stroke-width="0.629921" stroke-linecap="round" stroke-linejoin="round" stroke-miterlimit="10" fill="none" fill-rule="evenodd"/><path d="M395.5 725.5C410.744 725.5 395.865 657.5 417.5 657.5" stroke="#696969" stroke-width="0.629921" stroke-linecap="round" stroke-linejoin="round" stroke-miterlimit="10" fill="none" fill-rule="evenodd"/><path d="M395.5 725.5C409.477 725.5 398.82 679.5 417.5 679.5" stroke="#696969" stroke-width="0.629921" stroke-linecap="round" stroke-linejoin="round" stroke-miterlimit="10" fill="none" fill-rule="evenodd"/><path d="M395.5 725.5C407.176 725.5 404.189 703.5 417.5 703.5" stroke="#696969" stroke-width="0.629921" stroke-linecap="round" stroke-linejoin="round" stroke-miterlimit="10" fill="none" fill-rule="evenodd"/><path d="M395.5 725.5C408.431 725.5 401.261 759.5 417.5 759.5" stroke="#696969" stroke-width="0.629921" stroke-linecap="round" stroke-linejoin="round" stroke-miterlimit="10" fill="none" fill-rule="evenodd"/><path d="M395.5 828C405.775 828 407.458 817 417.5 817" stroke="#696969" stroke-width="0.629921" stroke-linecap="round" stroke-linejoin="round" stroke-miterlimit="10" fill="none" fill-rule="evenodd"/><path d="M395.5 828C405.775 828 407.458 839 417.5 839" stroke="#696969" stroke-width="0.629921" stroke-linecap="round" stroke-linejoin="round" stroke-miterlimit="10" fill="none" fill-rule="evenodd"/><path d="M264 728.5C278.7 728.5 264 862.5 285 862.5" stroke="#696969" stroke-width="0.629921" stroke-linecap="round" stroke-linejoin="round" stroke-miterlimit="10" fill="none" fill-rule="evenodd"/><path d="M463 759.5C471.4 759.5 477.7 759.5 484 759.5" stroke="#696969" stroke-width="0.629921" stroke-linecap="round" stroke-linejoin="round" stroke-miterlimit="10" fill="none" fill-rule="evenodd"/><path d="M538.5 759.5C548.775 759.5 550.458 747.5 560.5 747.5" stroke="#696969" stroke-width="0.629921" stroke-linecap="round" stroke-linejoin="round" stroke-miterlimit="10" fill="none" fill-rule="evenodd"/><path d="M538.5 759.5C551.431 759.5 544.261 793.5 560.5 793.5" stroke="#696969" stroke-width="0.629921" stroke-linecap="round" stroke-linejoin="round" stroke-miterlimit="10" fill="none" fill-rule="evenodd"/><path d="M616 748C627.145 748 624.294 725 637 725" stroke="#696969" stroke-width="0.629921" stroke-linecap="round" stroke-linejoin="round" stroke-miterlimit="10" fill="none" fill-rule="evenodd"/><path d="M616 748.5C624.4 748.5 630.7 748.5 637 748.5" stroke="#696969" stroke-width="0.629921" stroke-linecap="round" stroke-linejoin="round" stroke-miterlimit="10" fill="none" fill-rule="evenodd"/><path d="M616 748C627.145 748 624.294 771 637 771" stroke="#696969" stroke-width="0.629921" stroke-linecap="round" stroke-linejoin="round" stroke-miterlimit="10" fill="none" fill-rule="evenodd"/><path d="M264 1043C278.7 1043 264 938 285 938" stroke="#696969" stroke-width="0.629921" stroke-linecap="round" stroke-linejoin="round" stroke-miterlimit="10" fill="none" fill-rule="evenodd"/><path d="M339.5 938.5C352.431 938.5 345.261 904.5 361.5 904.5" stroke="#696969" stroke-width="0.629921" stroke-linecap="round" stroke-linejoin="round" stroke-miterlimit="10" fill="none" fill-rule="evenodd"/><path d="M339.5 938.5C349.775 938.5 351.458 926.5 361.5 926.5" stroke="#696969" stroke-width="0.629921" stroke-linecap="round" stroke-linejoin="round" stroke-miterlimit="10" fill="none" fill-rule="evenodd"/><path d="M339.5 939C349.775 939 351.458 950 361.5 950" stroke="#696969" stroke-width="0.629921" stroke-linecap="round" stroke-linejoin="round" stroke-miterlimit="10" fill="none" fill-rule="evenodd"/><path d="M339.5 938.5C352.431 938.5 345.261 972.5 361.5 972.5" stroke="#696969" stroke-width="0.629921" stroke-linecap="round" stroke-linejoin="round" stroke-miterlimit="10" fill="none" fill-rule="evenodd"/><path d="M264 1043.5C277.956 1043.5 265.736 1097.5 285 1097.5" stroke="#696969" stroke-width="0.629921" stroke-linecap="round" stroke-linejoin="round" stroke-miterlimit="10" fill="none" fill-rule="evenodd"/><path d="M320 1097.5C334.7 1097.5 320 1017.5 341 1017.5" stroke="#696969" stroke-width="0.629921" stroke-linecap="round" stroke-linejoin="round" stroke-miterlimit="10" fill="none" fill-rule="evenodd"/><path d="M320 1097.5C332.343 1097.5 325.499 1063.5 341 1063.5" stroke="#696969" stroke-width="0.629921" stroke-linecap="round" stroke-linejoin="round" stroke-miterlimit="10" fill="none" fill-rule="evenodd"/><path d="M320 1097.5C329.808 1097.5 331.414 1085.5 341 1085.5" stroke="#696969" stroke-width="0.629921" stroke-linecap="round" stroke-linejoin="round" stroke-miterlimit="10" fill="none" fill-rule="evenodd"/><path d="M320 1098C329.808 1098 331.414 1109 341 1109" stroke="#696969" stroke-width="0.629921" stroke-linecap="round" stroke-linejoin="round" stroke-miterlimit="10" fill="none" fill-rule="evenodd"/><path d="M320 1097.5C332.343 1097.5 325.499 1131.5 341 1131.5" stroke="#696969" stroke-width="0.629921" stroke-linecap="round" stroke-linejoin="round" stroke-miterlimit="10" fill="none" fill-rule="evenodd"/><path d="M320 1097C334.09 1097 321.423 1154 341 1154" stroke="#696969" stroke-width="0.629921" stroke-linecap="round" stroke-linejoin="round" stroke-miterlimit="10" fill="none" fill-rule="evenodd"/><path d="M320 1098C334.7 1098 320 1177 341 1177" stroke="#696969" stroke-width="0.629921" stroke-linecap="round" stroke-linejoin="round" stroke-miterlimit="10" fill="none" fill-rule="evenodd"/><path d="M320 1097.5C334.7 1097.5 320 1199.5 341 1199.5" stroke="#696969" stroke-width="0.629921" stroke-linecap="round" stroke-linejoin="round" stroke-miterlimit="10" fill="none" fill-rule="evenodd"/><path d="M417 1017.5C425.4 1017.5 431.7 1017.5 438 1017.5" stroke="#696969" stroke-width="0.629921" stroke-linecap="round" stroke-linejoin="round" stroke-miterlimit="10" fill="none" fill-rule="evenodd"/><path d="M494 1018C505.145 1018 502.294 995 515 995" stroke="#696969" stroke-width="0.629921" stroke-linecap="round" stroke-linejoin="round" stroke-miterlimit="10" fill="none" fill-rule="evenodd"/><path d="M494 1017.5C502.4 1017.5 508.7 1017.5 515 1017.5" stroke="#696969" stroke-width="0.629921" stroke-linecap="round" stroke-linejoin="round" stroke-miterlimit="10" fill="none" fill-rule="evenodd"/><path d="M494 1018C505.145 1018 502.294 1041 515 1041" stroke="#696969" stroke-width="0.629921" stroke-linecap="round" stroke-linejoin="round" stroke-miterlimit="10" fill="none" fill-rule="evenodd"/><path d="M35.1447 627 153.855 627C155.969 627 157 627.967 157 629.947L157 666.053C157 668.033 155.969 669 153.855 669L35.1447 669C33.0314 669 32 668.033 32 666.053L32 629.947C32 627.967 33.0314 627 35.1447 627Z" stroke="#435FBC" stroke-width="1.88976" stroke-linejoin="round" stroke-miterlimit="10" fill="#435FBC" fill-rule="evenodd"/><text fill="#FFFFFF" font-family="Microsoft YaHei,Microsoft YaHei_MSFontService,sans-serif" font-weight="400" font-size="11" transform="translate(60.2396 651)">正确使用词语</text><path d="M210.655 319.5 260.345 319.5C262.465 319.5 263.5 320.493 263.5 322.527L263.5 344.473C263.5 346.507 262.465 347.5 260.345 347.5L210.655 347.5C208.535 347.5 207.5 346.507 207.5 344.473L207.5 322.527C207.5 320.493 208.535 319.5 210.655 319.5Z" stroke="#EBECF3" stroke-width="0.629921" stroke-linejoin="round" stroke-miterlimit="10" fill="#EBECF3" fill-rule="evenodd"/><text fill="#303030" font-family="Microsoft YaHei,Microsoft YaHei_MSFontService,sans-serif" font-weight="400" font-size="9" transform="translate(225.537 335)">成语</text><path d="M210.655 714.5 260.345 714.5C262.465 714.5 263.5 715.457 263.5 717.419L263.5 738.581C263.5 740.543 262.465 741.5 260.345 741.5L210.655 741.5C208.535 741.5 207.5 740.543 207.5 738.581L207.5 717.419C207.5 715.457 208.535 714.5 210.655 714.5Z" stroke="#EBECF3" stroke-width="0.629921" stroke-linejoin="round" stroke-miterlimit="10" fill="#EBECF3" fill-rule="evenodd"/><text fill="#303030" font-family="Microsoft YaHei,Microsoft YaHei_MSFontService,sans-serif" font-weight="400" font-size="9" transform="translate(225.537 730)">实词</text><path d="M210.655 1029.5 260.345 1029.5C262.465 1029.5 263.5 1030.46 263.5 1032.42L263.5 1053.58C263.5 1055.54 262.465 1056.5 260.345 1056.5L210.655 1056.5C208.535 1056.5 207.5 1055.54 207.5 1053.58L207.5 1032.42C207.5 1030.46 208.535 1029.5 210.655 1029.5Z" stroke="#EBECF3" stroke-width="0.629921" stroke-linejoin="round" stroke-miterlimit="10" fill="#EBECF3" fill-rule="evenodd"/><text fill="#303030" font-family="Microsoft YaHei,Microsoft YaHei_MSFontService,sans-serif" font-weight="400" font-size="9" transform="translate(225.537 1045)">虚词</text><path d="M284.5 217.5 340.5 217.5" stroke="#696969" stroke-width="0.629921" stroke-linejoin="round" stroke-miterlimit="10" fill="none" fill-rule="evenodd"/><text fill="#454545" font-family="Microsoft YaHei,Microsoft YaHei_MSFontService,sans-serif" font-weight="400" font-size="8" transform="translate(296.06 210)">误用类型</text><path d="M361.5 115.5 468.5 115.5" stroke="#696969" stroke-width="0.629921" stroke-linejoin="round" stroke-miterlimit="10" fill="none" fill-rule="evenodd"/><text fill="#454545" font-family="Microsoft YaHei,Microsoft YaHei_MSFontService,sans-serif" font-weight="400" font-size="8" transform="translate(378.373 108)">看词义，忌望文生义</text><path d="M361.5 137.5 468.5 137.5" stroke="#696969" stroke-width="0.629921" stroke-linejoin="round" stroke-miterlimit="10" fill="none" fill-rule="evenodd"/><text fill="#454545" font-family="Microsoft YaHei,Microsoft YaHei_MSFontService,sans-serif" font-weight="400" font-size="8" transform="translate(378.373 130)">看对象，忌张冠李戴</text><path d="M361.5 160.5 468.5 160.5" stroke="#696969" stroke-width="0.629921" stroke-linejoin="round" stroke-miterlimit="10" fill="none" fill-rule="evenodd"/><text fill="#454545" font-family="Microsoft YaHei,Microsoft YaHei_MSFontService,sans-serif" font-weight="400" font-size="8" transform="translate(378.373 153)">看色彩，忌褒贬失当</text><path d="M361.5 183.5 468.5 183.5" stroke="#696969" stroke-width="0.629921" stroke-linejoin="round" stroke-miterlimit="10" fill="none" fill-rule="evenodd"/><text fill="#454545" font-family="Microsoft YaHei,Microsoft YaHei_MSFontService,sans-serif" font-weight="400" font-size="8" transform="translate(378.373 176)">看表达，忌重复赘余</text><path d="M361.5 206.5 468.5 206.5" stroke="#696969" stroke-width="0.629921" stroke-linejoin="round" stroke-miterlimit="10" fill="none" fill-rule="evenodd"/><text fill="#454545" font-family="Microsoft YaHei,Microsoft YaHei_MSFontService,sans-serif" font-weight="400" font-size="8" transform="translate(378.373 198)">看语气，忌敬谦错位</text><path d="M361.5 228.5 468.5 228.5" stroke="#696969" stroke-width="0.629921" stroke-linejoin="round" stroke-miterlimit="10" fill="none" fill-rule="evenodd"/><text fill="#454545" font-family="Microsoft YaHei,Microsoft YaHei_MSFontService,sans-serif" font-weight="400" font-size="8" transform="translate(378.373 221)">看适度，忌轻重失调</text><path d="M361.5 251.5 468.5 251.5" stroke="#696969" stroke-width="0.629921" stroke-linejoin="round" stroke-miterlimit="10" fill="none" fill-rule="evenodd"/><text fill="#454545" font-family="Microsoft YaHei,Microsoft YaHei_MSFontService,sans-serif" font-weight="400" font-size="8" transform="translate(378.373 244)">看搭配，忌功能混乱</text><path d="M361.5 274.5 468.5 274.5" stroke="#696969" stroke-width="0.629921" stroke-linejoin="round" stroke-miterlimit="10" fill="none" fill-rule="evenodd"/><text fill="#454545" font-family="Microsoft YaHei,Microsoft YaHei_MSFontService,sans-serif" font-weight="400" font-size="8" transform="translate(378.373 267)">看逻辑，忌自相矛盾</text><path d="M361.5 296.5 468.5 296.5" stroke="#696969" stroke-width="0.629921" stroke-linejoin="round" stroke-miterlimit="10" fill="none" fill-rule="evenodd"/><text fill="#454545" font-family="Microsoft YaHei,Microsoft YaHei_MSFontService,sans-serif" font-weight="400" font-size="8" transform="translate(378.373 289)">看多义，忌顾此失彼</text><path d="M361.5 319.5 468.5 319.5" stroke="#696969" stroke-width="0.629921" stroke-linejoin="round" stroke-miterlimit="10" fill="none" fill-rule="evenodd"/><text fill="#454545" font-family="Microsoft YaHei,Microsoft YaHei_MSFontService,sans-serif" font-weight="400" font-size="8" transform="translate(378.373 312)">看差异，忌词义混淆</text><path d="M284.5 456.5 340.5 456.5" stroke="#696969" stroke-width="0.629921" stroke-linejoin="round" stroke-miterlimit="10" fill="none" fill-rule="evenodd"/><text fill="#454545" font-family="Microsoft YaHei,Microsoft YaHei_MSFontService,sans-serif" font-weight="400" font-size="8" transform="translate(296.06 448)">使用要点</text><path d="M361.5 365.5 416.5 365.5" stroke="#696969" stroke-width="0.629921" stroke-linejoin="round" stroke-miterlimit="10" fill="none" fill-rule="evenodd"/><text fill="#454545" font-family="Microsoft YaHei,Microsoft YaHei_MSFontService,sans-serif" font-weight="400" font-size="8" transform="translate(372.696 358)">理解含义</text><path d="M361.5 490.5 416.5 490.5" stroke="#696969" stroke-width="0.629921" stroke-linejoin="round" stroke-miterlimit="10" fill="none" fill-rule="evenodd"/><text fill="#454545" font-family="Microsoft YaHei,Microsoft YaHei_MSFontService,sans-serif" font-weight="400" font-size="8" transform="translate(372.696 483)">注意语境</text><path d="M438.5 342.5 493.5 342.5" stroke="#696969" stroke-width="0.629921" stroke-linejoin="round" stroke-miterlimit="10" fill="none" fill-rule="evenodd"/><text fill="#454545" font-family="Microsoft YaHei,Microsoft YaHei_MSFontService,sans-serif" font-weight="400" font-size="8" transform="translate(449.332 335)">抓关键字</text><path d="M438.5 365.5 483.5 365.5" stroke="#696969" stroke-width="0.629921" stroke-linejoin="round" stroke-miterlimit="10" fill="none" fill-rule="evenodd"/><text fill="#454545" font-family="Microsoft YaHei,Microsoft YaHei_MSFontService,sans-serif" font-weight="400" font-size="8" transform="translate(448.196 358)">探词源</text><path d="M438.5 387.5 493.5 387.5" stroke="#696969" stroke-width="0.629921" stroke-linejoin="round" stroke-miterlimit="10" fill="none" fill-rule="evenodd"/><text fill="#454545" font-family="Microsoft YaHei,Microsoft YaHei_MSFontService,sans-serif" font-weight="400" font-size="8" transform="translate(449.332 380)">把握多义</text><path d="M438.5 410.5 472.5 410.5" stroke="#696969" stroke-width="0.629921" stroke-linejoin="round" stroke-miterlimit="10" fill="none" fill-rule="evenodd"/><text fill="#454545" font-family="Microsoft YaHei,Microsoft YaHei_MSFontService,sans-serif" font-weight="400" font-size="8" transform="translate(447.061 403)">对象</text><path d="M438.5 433.5 544.5 433.5" stroke="#696969" stroke-width="0.629921" stroke-linejoin="round" stroke-miterlimit="10" fill="none" fill-rule="evenodd"/><text fill="#454545" font-family="Microsoft YaHei,Microsoft YaHei_MSFontService,sans-serif" font-weight="400" font-size="8" transform="translate(455.009 426)">色彩（褒贬、语体）</text><path d="M438.5 569.5 472.5 569.5" stroke="#696969" stroke-width="0.629921" stroke-linejoin="round" stroke-miterlimit="10" fill="none" fill-rule="evenodd"/><text fill="#454545" font-family="Microsoft YaHei,Microsoft YaHei_MSFontService,sans-serif" font-weight="400" font-size="8" transform="translate(447.061 562)">逻辑</text><path d="M438.5 456.5 472.5 456.5" stroke="#696969" stroke-width="0.629921" stroke-linejoin="round" stroke-miterlimit="10" fill="none" fill-rule="evenodd"/><text fill="#454545" font-family="Microsoft YaHei,Microsoft YaHei_MSFontService,sans-serif" font-weight="400" font-size="8" transform="translate(447.061 448)">敬谦</text><path d="M438.5 478.5 493.5 478.5" stroke="#696969" stroke-width="0.629921" stroke-linejoin="round" stroke-miterlimit="10" fill="none" fill-rule="evenodd"/><text fill="#454545" font-family="Microsoft YaHei,Microsoft YaHei_MSFontService,sans-serif" font-weight="400" font-size="8" transform="translate(449.332 471)">轻重大小</text><path d="M438.5 501.5 565.5 501.5" stroke="#696969" stroke-width="0.629921" stroke-linejoin="round" stroke-miterlimit="10" fill="none" fill-rule="evenodd"/><text fill="#454545" font-family="Microsoft YaHei,Microsoft YaHei_MSFontService,sans-serif" font-weight="400" font-size="8" transform="translate(457.28 494)">语法功能（成分、及物）</text><path d="M438.5 524.5 534.5 524.5" stroke="#696969" stroke-width="0.629921" stroke-linejoin="round" stroke-miterlimit="10" fill="none" fill-rule="evenodd"/><text fill="#454545" font-family="Microsoft YaHei,Microsoft YaHei_MSFontService,sans-serif" font-weight="400" font-size="8" transform="translate(453.873 517)">习惯用法（肯否）</text><path d="M438.5 546.5 472.5 546.5" stroke="#696969" stroke-width="0.629921" stroke-linejoin="round" stroke-miterlimit="10" fill="none" fill-rule="evenodd"/><text fill="#454545" font-family="Microsoft YaHei,Microsoft YaHei_MSFontService,sans-serif" font-weight="400" font-size="8" transform="translate(447.061 539)">搭配</text><path d="M284.5 725.5 319.5 725.5" stroke="#696969" stroke-width="0.629921" stroke-linejoin="round" stroke-miterlimit="10" fill="none" fill-rule="evenodd"/><text fill="#454545" font-family="Microsoft YaHei,Microsoft YaHei_MSFontService,sans-serif" font-weight="400" font-size="8" transform="translate(293.789 718)">辨析</text><path d="M341.5 623.5 396.5 623.5" stroke="#696969" stroke-width="0.629921" stroke-linejoin="round" stroke-miterlimit="10" fill="none" fill-rule="evenodd"/><text fill="#454545" font-family="Microsoft YaHei,Microsoft YaHei_MSFontService,sans-serif" font-weight="400" font-size="8" transform="translate(352.154 616)">词语色彩</text><path d="M341.5 725.5 396.5 725.5" stroke="#696969" stroke-width="0.629921" stroke-linejoin="round" stroke-miterlimit="10" fill="none" fill-rule="evenodd"/><text fill="#454545" font-family="Microsoft YaHei,Microsoft YaHei_MSFontService,sans-serif" font-weight="400" font-size="8" transform="translate(352.154 718)">词语意义</text><path d="M341.5 827.5 396.5 827.5" stroke="#696969" stroke-width="0.629921" stroke-linejoin="round" stroke-miterlimit="10" fill="none" fill-rule="evenodd"/><text fill="#454545" font-family="Microsoft YaHei,Microsoft YaHei_MSFontService,sans-serif" font-weight="400" font-size="8" transform="translate(352.154 820)">词语运用</text><path d="M417.5 611.5 514.5 611.5" stroke="#696969" stroke-width="0.629921" stroke-linejoin="round" stroke-miterlimit="10" fill="none" fill-rule="evenodd"/><text fill="#454545" font-family="Microsoft YaHei,Microsoft YaHei_MSFontService,sans-serif" font-weight="400" font-size="8" transform="translate(433.332 604)">感情色彩（褒贬）</text><path d="M417.5 634.5 514.5 634.5" stroke="#696969" stroke-width="0.629921" stroke-linejoin="round" stroke-miterlimit="10" fill="none" fill-rule="evenodd"/><text fill="#454545" font-family="Microsoft YaHei,Microsoft YaHei_MSFontService,sans-serif" font-weight="400" font-size="8" transform="translate(433.332 627)">语体色彩（书口）</text><path d="M417.5 657.5 472.5 657.5" stroke="#696969" stroke-width="0.629921" stroke-linejoin="round" stroke-miterlimit="10" fill="none" fill-rule="evenodd"/><text fill="#454545" font-family="Microsoft YaHei,Microsoft YaHei_MSFontService,sans-serif" font-weight="400" font-size="8" transform="translate(428.79 650)">搭配对象</text><path d="M417.5 680.5 472.5 680.5" stroke="#696969" stroke-width="0.629921" stroke-linejoin="round" stroke-miterlimit="10" fill="none" fill-rule="evenodd"/><text fill="#454545" font-family="Microsoft YaHei,Microsoft YaHei_MSFontService,sans-serif" font-weight="400" font-size="8" transform="translate(428.79 672)">词义轻重</text><path d="M417.5 702.5 472.5 702.5" stroke="#696969" stroke-width="0.629921" stroke-linejoin="round" stroke-miterlimit="10" fill="none" fill-rule="evenodd"/><text fill="#454545" font-family="Microsoft YaHei,Microsoft YaHei_MSFontService,sans-serif" font-weight="400" font-size="8" transform="translate(428.79 695)">使用范围</text><path d="M417.5 759.5 462.5 759.5" stroke="#696969" stroke-width="0.629921" stroke-linejoin="round" stroke-miterlimit="10" fill="none" fill-rule="evenodd"/><text fill="#454545" font-family="Microsoft YaHei,Microsoft YaHei_MSFontService,sans-serif" font-weight="400" font-size="8" transform="translate(427.655 752)">侧重点</text><path d="M417.5 816.5 452.5 816.5" stroke="#696969" stroke-width="0.629921" stroke-linejoin="round" stroke-miterlimit="10" fill="none" fill-rule="evenodd"/><text fill="#454545" font-family="Microsoft YaHei,Microsoft YaHei_MSFontService,sans-serif" font-weight="400" font-size="8" transform="translate(426.519 809)">词性</text><path d="M417.5 839.5 472.5 839.5" stroke="#696969" stroke-width="0.629921" stroke-linejoin="round" stroke-miterlimit="10" fill="none" fill-rule="evenodd"/><text fill="#454545" font-family="Microsoft YaHei,Microsoft YaHei_MSFontService,sans-serif" font-weight="400" font-size="8" transform="translate(428.79 831)">语法功能</text><path d="M284.5 862.5 312.5 862.5" stroke="#696969" stroke-width="0.629921" stroke-linejoin="round" stroke-miterlimit="10" fill="none" fill-rule="evenodd"/><path d="M484.5 759.5 539.5 759.5" stroke="#696969" stroke-width="0.629921" stroke-linejoin="round" stroke-miterlimit="10" fill="none" fill-rule="evenodd"/><text fill="#454545" font-family="Microsoft YaHei,Microsoft YaHei_MSFontService,sans-serif" font-weight="400" font-size="8" transform="translate(495.155 752)">辨析方法</text><path d="M560.5 748.5 615.5 748.5" stroke="#696969" stroke-width="0.629921" stroke-linejoin="round" stroke-miterlimit="10" fill="none" fill-rule="evenodd"/><text fill="#454545" font-family="Microsoft YaHei,Microsoft YaHei_MSFontService,sans-serif" font-weight="400" font-size="8" transform="translate(571.791 741)">区分语素</text><path d="M560.5 793.5 615.5 793.5" stroke="#696969" stroke-width="0.629921" stroke-linejoin="round" stroke-miterlimit="10" fill="none" fill-rule="evenodd"/><text fill="#454545" font-family="Microsoft YaHei,Microsoft YaHei_MSFontService,sans-serif" font-weight="400" font-size="8" transform="translate(571.791 786)">联系语境</text><path d="M637.5 725.5 672.5 725.5" stroke="#696969" stroke-width="0.629921" stroke-linejoin="round" stroke-miterlimit="10" fill="none" fill-rule="evenodd"/><text fill="#454545" font-family="Microsoft YaHei,Microsoft YaHei_MSFontService,sans-serif" font-weight="400" font-size="8" transform="translate(646.157 718)">组词</text><path d="M637.5 748.5 692.5 748.5" stroke="#696969" stroke-width="0.629921" stroke-linejoin="round" stroke-miterlimit="10" fill="none" fill-rule="evenodd"/><text fill="#454545" font-family="Microsoft YaHei,Microsoft YaHei_MSFontService,sans-serif" font-weight="400" font-size="8" transform="translate(648.427 741)">找反义词</text><path d="M637.5 770.5 672.5 770.5" stroke="#696969" stroke-width="0.629921" stroke-linejoin="round" stroke-miterlimit="10" fill="none" fill-rule="evenodd"/><text fill="#454545" font-family="Microsoft YaHei,Microsoft YaHei_MSFontService,sans-serif" font-weight="400" font-size="8" transform="translate(646.157 763)">造句</text><path d="M284.5 938.5 340.5 938.5" stroke="#696969" stroke-width="0.629921" stroke-linejoin="round" stroke-miterlimit="10" fill="none" fill-rule="evenodd"/><text fill="#454545" font-family="Microsoft YaHei,Microsoft YaHei_MSFontService,sans-serif" font-weight="400" font-size="8" transform="translate(296.06 931)">基本知识</text><path d="M361.5 904.5 445.5 904.5" stroke="#696969" stroke-width="0.629921" stroke-linejoin="round" stroke-miterlimit="10" fill="none" fill-rule="evenodd"/><text fill="#454545" font-family="Microsoft YaHei,Microsoft YaHei_MSFontService,sans-serif" font-weight="400" font-size="8" transform="translate(376.917 897)">副词：<tspan font-family="Calibri,Calibri_MSFontService,sans-serif" font-size="8" x="24" y="0">+</tspan>动、形</text><path d="M361.5 927.5 445.5 927.5" stroke="#696969" stroke-width="0.629921" stroke-linejoin="round" stroke-miterlimit="10" fill="none" fill-rule="evenodd"/><text fill="#454545" font-family="Microsoft YaHei,Microsoft YaHei_MSFontService,sans-serif" font-weight="400" font-size="8" transform="translate(376.917 919)">介词：<tspan font-family="Calibri,Calibri_MSFontService,sans-serif" font-size="8" x="24" y="0">+</tspan>名、代</text><path d="M361.5 949.5 478.5 949.5" stroke="#696969" stroke-width="0.629921" stroke-linejoin="round" stroke-miterlimit="10" fill="none" fill-rule="evenodd"/><text fill="#454545" font-family="Microsoft YaHei,Microsoft YaHei_MSFontService,sans-serif" font-weight="400" font-size="8" transform="translate(379.508 942)">连词：连接词语或句子</text><path d="M361.5 972.5 482.5 972.5" stroke="#696969" stroke-width="0.629921" stroke-linejoin="round" stroke-miterlimit="10" fill="none" fill-rule="evenodd"/><text fill="#454545" font-family="Microsoft YaHei,Microsoft YaHei_MSFontService,sans-serif" font-weight="400" font-size="8" transform="translate(379.483 965)">助词、叹词、拟声词<tspan font-family="Calibri,Calibri_MSFontService,sans-serif" font-size="8" x="72" y="0">......</tspan></text><path d="M284.5 1097.5 319.5 1097.5" stroke="#696969" stroke-width="0.629921" stroke-linejoin="round" stroke-miterlimit="10" fill="none" fill-rule="evenodd"/><text fill="#454545" font-family="Microsoft YaHei,Microsoft YaHei_MSFontService,sans-serif" font-weight="400" font-size="8" transform="translate(293.789 1090)">辨析</text><path d="M341.5 1017.5 416.5 1017.5" stroke="#696969" stroke-width="0.629921" stroke-linejoin="round" stroke-miterlimit="10" fill="none" fill-rule="evenodd"/><text fill="#454545" font-family="Microsoft YaHei,Microsoft YaHei_MSFontService,sans-serif" font-weight="400" font-size="8" transform="translate(354.425 1010)">语义重点不同</text><path d="M341.5 1063.5 396.5 1063.5" stroke="#696969" stroke-width="0.629921" stroke-linejoin="round" stroke-miterlimit="10" fill="none" fill-rule="evenodd"/><text fill="#454545" font-family="Microsoft YaHei,Microsoft YaHei_MSFontService,sans-serif" font-weight="400" font-size="8" transform="translate(352.154 1056)">程度不同</text><path d="M341.5 1086.5 396.5 1086.5" stroke="#696969" stroke-width="0.629921" stroke-linejoin="round" stroke-miterlimit="10" fill="none" fill-rule="evenodd"/><text fill="#454545" font-family="Microsoft YaHei,Microsoft YaHei_MSFontService,sans-serif" font-weight="400" font-size="8" transform="translate(352.154 1079)">对象不同</text><path d="M341.5 1108.5 396.5 1108.5" stroke="#696969" stroke-width="0.629921" stroke-linejoin="round" stroke-miterlimit="10" fill="none" fill-rule="evenodd"/><text fill="#454545" font-family="Microsoft YaHei,Microsoft YaHei_MSFontService,sans-serif" font-weight="400" font-size="8" transform="translate(352.154 1101)">色彩不同</text><path d="M341.5 1131.5 396.5 1131.5" stroke="#696969" stroke-width="0.629921" stroke-linejoin="round" stroke-miterlimit="10" fill="none" fill-rule="evenodd"/><text fill="#454545" font-family="Microsoft YaHei,Microsoft YaHei_MSFontService,sans-serif" font-weight="400" font-size="8" transform="translate(352.154 1124)">习惯不同</text><path d="M341.5 1154.5 416.5 1154.5" stroke="#696969" stroke-width="0.629921" stroke-linejoin="round" stroke-miterlimit="10" fill="none" fill-rule="evenodd"/><text fill="#454545" font-family="Microsoft YaHei,Microsoft YaHei_MSFontService,sans-serif" font-weight="400" font-size="8" transform="translate(354.425 1147)">语法成分不同</text><path d="M341.5 1177.5 396.5 1177.5" stroke="#696969" stroke-width="0.629921" stroke-linejoin="round" stroke-miterlimit="10" fill="none" fill-rule="evenodd"/><text fill="#454545" font-family="Microsoft YaHei,Microsoft YaHei_MSFontService,sans-serif" font-weight="400" font-size="8" transform="translate(352.154 1169)">逻辑不同</text><path d="M341.5 1199.5 396.5 1199.5" stroke="#696969" stroke-width="0.629921" stroke-linejoin="round" stroke-miterlimit="10" fill="none" fill-rule="evenodd"/><text fill="#454545" font-family="Microsoft YaHei,Microsoft YaHei_MSFontService,sans-serif" font-weight="400" font-size="8" transform="translate(352.154 1192)">搭配不同</text><path d="M438.5 1017.5 493.5 1017.5" stroke="#696969" stroke-width="0.629921" stroke-linejoin="round" stroke-miterlimit="10" fill="none" fill-rule="evenodd"/><text fill="#454545" font-family="Microsoft YaHei,Microsoft YaHei_MSFontService,sans-serif" font-weight="400" font-size="8" transform="translate(449.332 1010)">辨析方法</text><path d="M514.5 995.5 549.5 995.5" stroke="#696969" stroke-width="0.629921" stroke-linejoin="round" stroke-miterlimit="10" fill="none" fill-rule="evenodd"/><text fill="#454545" font-family="Microsoft YaHei,Microsoft YaHei_MSFontService,sans-serif" font-weight="400" font-size="8" transform="translate(523.697 988)">组词</text><path d="M514.5 1017.5 549.5 1017.5" stroke="#696969" stroke-width="0.629921" stroke-linejoin="round" stroke-miterlimit="10" fill="none" fill-rule="evenodd"/><text fill="#454545" font-family="Microsoft YaHei,Microsoft YaHei_MSFontService,sans-serif" font-weight="400" font-size="8" transform="translate(523.697 1010)">造句</text><path d="M514.5 1040.5 570.5 1040.5" stroke="#696969" stroke-width="0.629921" stroke-linejoin="round" stroke-miterlimit="10" fill="none" fill-rule="evenodd"/><text fill="#454545" font-family="Microsoft YaHei,Microsoft YaHei_MSFontService,sans-serif" font-weight="400" font-size="8" transform="translate(525.968 1033)">找反义词</text></g></svg>